<?xml version="1.0" encoding="UTF-8" standalone="no"?>
<!DOCTYPE svg PUBLIC "-//W3C//DTD SVG 1.1//EN" "http://www.w3.org/Graphics/SVG/1.1/DTD/svg11.dtd">
<!-- Created with Vectornator (http://vectornator.io/) -->
<svg height="969.882pt" stroke-miterlimit="10" style="fill-rule:nonzero;clip-rule:evenodd;stroke-linecap:round;stroke-linejoin:round;" version="1.1" viewBox="0 0 1013.97 969.882" width="1013.97pt" xml:space="preserve" xmlns="http://www.w3.org/2000/svg" xmlns:xlink="http://www.w3.org/1999/xlink">
<defs/>
<clipPath id="ArtboardFrame">
<rect height="969.882" width="1013.97" x="0" y="0"/>
</clipPath>
<g clip-path="url(#ArtboardFrame)" id="Layer-1">
<path d="M645.43 712.971C632.19 701.661 621.47 683.061 618.1 655.041C616.65 642.881 618.1 632.121 621.21 622.751C588.45 610.801 560.37 598.991 552.83 578.751L552.24 578.751C550.52 559.661 551.18 546.331 551.18 528.891C559.84 524.351 593.66 487.191 596.26 462.761C603.07 462.211 613.76 455.581 616.91 429.371C618.61 415.311 611.88 407.391 607.78 404.901C612.55 390.621 616.84 369.591 617.17 342.434C617.59 306.35 604.43 269.341 560.77 263.279C552.92 249.458 532.75 242.47 506.54 242.47C431.55 243.837 398.16 284.66 396.81 339.679C396.28 361.568 399.92 379.731 406.47 404.921C402.39 407.441 395.67 415.351 397.34 429.391C400.49 455.581 411.21 462.211 418 462.791C420.6 487.211 454.21 524.371 462.88 528.921C462.88 546.371 463.51 559.661 461.8 578.781C454.26 599.061 426.04 610.941 393.15 622.951C396.22 632.271 397.63 642.991 396.17 655.091C392.8 683.131 382.07 701.731 368.8 713.041C360.07 734.131 344.7 754.551 330.62 769.051C330.6 773.991 330.64 778.681 330.86 783.601C340.21 790.471 365.34 799.491 382.55 805.681C423.97 820.561 476.98 839.721 507.25 880.651C537.58 839.921 590.5 820.741 631.88 805.821C648.81 799.711 673.34 790.871 683.15 784.021C683.37 778.901 683.44 774.051 683.41 768.961C669.42 754.461 654.12 734.091 645.43 712.971Z" fill="#efff9d" fill-rule="nonzero" opacity="1" stroke="#585858" stroke-linecap="butt" stroke-linejoin="round" stroke-width="8"/>
<path d="M1013.97 935.451C994.15 847.571 836.85 851.621 817.35 799.181L816.75 799.181C815.03 780.091 815.69 766.761 815.69 749.321C824.36 744.781 858.17 707.621 860.77 683.191C867.58 682.641 878.27 676.011 881.42 649.801C883.12 635.731 876.4 627.821 872.3 625.331C877.06 611.051 881.36 590.021 881.69 562.861C882.11 526.781 868.95 489.771 825.28 483.711C817.43 469.881 797.26 462.901 771.06 462.901C696.07 464.261 662.67 505.091 661.33 560.111C660.8 581.991 664.43 600.161 670.98 625.351C666.9 627.871 660.18 635.781 661.86 649.821C665.01 676.011 675.72 682.641 682.51 683.211C685.11 707.641 718.73 744.801 727.39 749.341C727.39 766.801 728.03 780.091 726.31 799.201C706.82 851.641 549.15 847.921 529.36 935.801L529.03 947.841C528.83 960.141 538.77 969.881 551.07 969.881L991.92 969.881C1004.09 969.881 1013.97 960.011 1013.97 947.841L1013.97 935.451Z" fill="#8c9cd3" fill-rule="nonzero" opacity="1" stroke="#585858" stroke-linecap="butt" stroke-linejoin="round" stroke-width="8"/>
<path d="M660.69 434.641C659.23 446.671 656.23 456.661 652.44 465.391C679.03 436.491 719.5 419.761 770.24 418.831L770.64 418.831L771.03 418.831C810.75 418.831 834.74 431.001 848.98 443.871C880.74 453.331 903.91 475.731 916.08 507.001L991.92 507.001C1004.09 507.001 1013.97 497.131 1013.97 484.961L1013.97 472.551C994.15 384.671 836.85 388.721 817.35 336.284L816.75 336.284C815.03 317.195 815.69 303.86 815.69 286.424C824.36 281.883 858.17 244.719 860.77 220.295C867.58 219.744 878.27 213.109 881.42 186.901C883.12 172.837 876.4 164.924 872.3 162.433C877.08 148.149 881.38 127.12 881.71 99.986C882.13 63.902 868.97 26.892 825.3 20.83C817.43 6.987 797.26 0 771.06 0C696.07 1.366 662.67 42.19 661.33 97.208C660.8 119.097 664.43 137.26 670.98 162.455C666.9 164.968 660.18 172.881 661.86 186.923C665.01 213.109 675.72 219.744 682.51 220.317C685.11 244.741 718.73 281.905 727.39 286.446C727.39 303.904 728.03 317.195 726.31 336.306C718.84 356.432 690.97 368.224 658.42 380.081C657.58 386.011 656.63 391.651 655.57 396.661C660.14 407.201 662.47 419.961 660.69 434.641ZM484.94 935.451C465.12 847.571 307.83 851.621 288.32 799.181L287.72 799.181C286 780.091 286.67 766.761 286.67 749.321C295.33 744.781 329.14 707.621 331.74 683.191C338.55 682.641 349.24 676.011 352.4 649.801C354.09 635.731 347.37 627.821 343.27 625.331C348.03 611.051 352.33 590.021 352.66 562.861C353.08 526.781 339.92 489.771 296.25 483.711C288.41 469.881 268.26 462.901 242.03 462.901C167.04 464.261 133.64 505.091 132.3 560.111C131.77 581.991 135.41 600.161 141.95 625.351C137.88 627.871 131.15 635.781 132.83 649.821C135.98 676.011 146.69 682.641 153.48 683.211C156.08 707.641 189.7 744.801 198.36 749.341C198.36 766.801 199 780.091 197.28 799.201C177.8 851.641 20.12 847.921 0.33 935.801L0 947.491C-0.2 959.811 9.74 969.881 22.04 969.881L462.9 969.881C475.07 969.881 484.94 960.011 484.94 947.841L484.94 935.451Z" fill="#00b8aa" fill-rule="nonzero" opacity="1" stroke="#585858" stroke-linecap="butt" stroke-linejoin="round" stroke-width="8"/>
<path d="M22.04 506.981L98.07 506.981C118.46 452.851 169.64 420.131 241.24 418.811L241.63 418.811L242.03 418.811C281.75 418.811 305.73 430.981 319.97 443.851C337.21 448.991 351.85 458.051 363.7 470.131C358.88 460.521 355.28 448.791 353.59 434.641C351.8 419.721 354.25 406.781 358.97 396.131C357.75 390.691 357.14 385.621 356.25 380.441C323.63 368.357 295.79 356.365 288.34 336.306L287.77 336.306C286.05 317.217 286.71 303.882 286.71 286.446C295.37 281.905 329.19 244.741 331.79 220.317C338.6 219.766 349.29 213.131 352.44 186.923C354.14 172.859 347.42 164.946 343.32 162.455C348.05 148.149 352.35 127.12 352.68 99.986C353.1 63.902 339.94 26.892 296.28 20.83C288.41 6.987 268.26 0 242.03 0C167.04 1.366 133.67 42.19 132.32 97.208C131.79 119.097 135.43 137.26 141.98 162.455C137.9 164.968 131.18 172.881 132.85 186.923C136 213.109 146.72 219.744 153.51 220.317C156.11 244.741 189.72 281.905 198.38 286.446C198.38 303.904 199.02 317.195 197.3 336.306C177.82 388.751 20.15 385.041 0.35 472.901L0 484.591C-0.2 496.911 9.74 506.981 22.04 506.981Z" fill="#00c267" fill-rule="nonzero" opacity="1" stroke="#585858" stroke-linecap="butt" stroke-linejoin="round" stroke-width="8"/>
</g>
</svg>
