<?xml version="1.0" encoding="UTF-8" standalone="no"?>
<!DOCTYPE svg PUBLIC "-//W3C//DTD SVG 1.1//EN" "http://www.w3.org/Graphics/SVG/1.1/DTD/svg11.dtd">
<!-- Created with Vectornator (http://vectornator.io/) -->
<svg height="512.0px" stroke-miterlimit="10" style="fill-rule:nonzero;clip-rule:evenodd;stroke-linecap:round;stroke-linejoin:round;" version="1.1" viewBox="0 0 512 512" width="512.0px" xml:space="preserve" xmlns="http://www.w3.org/2000/svg" xmlns:xlink="http://www.w3.org/1999/xlink">
<defs/>
<g id="Layer-1">
<g opacity="1">
<path d="M201.22 144.632L201.22 131.867C201.22 115.592 214.304 102.508 230.58 102.508L364.613 102.508C372.272 102.508 379.931 105.699 385.357 111.124L426.843 152.611C432.268 158.036 435.46 165.695 435.46 173.354L435.46 380.786C435.46 397.062 422.375 410.146 406.1 410.146L333.977 410.146L201.22 144.632" fill="#f2e5ac" fill-rule="nonzero" opacity="1" stroke="none"/>
<path d="M259.301 117.507L205.05 117.507C204.092 119.102 203.454 120.379 202.816 122.293C202.497 122.932 202.497 123.57 202.178 124.208C201.539 126.761 201.22 129.314 201.22 132.186L201.22 144.632L333.977 410.146L359.188 410.146L359.188 217.393C359.188 201.756 353.125 187.076 341.955 175.907L300.788 134.739C289.618 123.57 274.939 117.507 259.301 117.507" fill="#d9ce9a" fill-rule="nonzero" opacity="1" stroke="none"/>
<path d="M406.1 419.72L333.977 419.72C328.552 419.72 324.403 415.571 324.403 410.146C324.403 404.721 328.552 400.572 333.977 400.572L406.1 400.572C416.95 400.572 425.886 391.637 425.886 380.786L425.886 173.354C425.886 168.248 423.971 163.142 420.141 159.312L378.655 117.826C374.825 114.315 370.038 112.4 364.613 112.4L230.58 112.4C219.73 112.4 210.794 121.336 210.794 132.186L210.794 144.951C210.794 150.377 206.645 154.525 201.22 154.525C195.795 154.525 191.646 150.377 191.646 144.951L191.646 132.186C191.646 110.805 209.198 93.2529 230.58 93.2529L364.613 93.2529C374.825 93.2529 384.718 97.4015 392.058 104.741L433.545 146.228C440.885 153.568 445.033 163.461 445.033 173.673L445.033 381.106C445.033 402.168 427.481 419.72 406.1 419.72Z" fill="#454b54" fill-rule="nonzero" opacity="1" stroke="none"/>
<path d="M300.788 453.867L125.268 453.867C108.992 453.867 95.9082 440.782 95.9082 424.507L95.9082 175.907C95.9082 159.631 108.992 146.547 125.268 146.547L259.301 146.547C266.96 146.547 274.619 149.738 280.045 155.164L321.531 196.65C326.956 202.075 330.148 209.734 330.148 217.393L330.148 424.826C330.148 440.782 317.063 453.867 300.788 453.867Z" fill="#ffffff" fill-rule="nonzero" opacity="1" stroke="none"/>
<path d="M300.788 463.44L125.268 463.44C103.886 463.44 86.3344 445.888 86.3344 424.507L86.3344 175.907C86.3344 154.525 103.886 136.973 125.268 136.973L259.301 136.973C269.513 136.973 279.406 141.122 286.746 148.462L328.233 189.948C335.573 197.288 339.721 207.181 339.721 217.393L339.721 424.826C339.721 445.888 322.169 463.44 300.788 463.44ZM125.268 156.44C114.418 156.44 105.482 165.376 105.482 176.226L105.482 424.826C105.482 435.676 114.418 444.612 125.268 444.612L300.788 444.612C311.638 444.612 320.574 435.676 320.574 424.826L320.574 217.393C320.574 212.287 318.659 207.181 314.829 203.352L273.343 161.865C269.513 158.036 264.726 156.121 259.301 156.121L125.268 156.44L125.268 156.44Z" fill="#454b54" fill-rule="nonzero" opacity="1" stroke="none"/>
<path d="M271.428 405.04L154.628 405.04C149.202 405.04 145.054 400.891 145.054 395.466C145.054 390.041 149.202 385.893 154.628 385.893L271.747 385.893C277.172 385.893 281.321 390.041 281.321 395.466C281.321 400.891 276.853 405.04 271.428 405.04ZM271.428 361.001L154.628 361.001C149.202 361.001 145.054 356.852 145.054 351.427C145.054 346.002 149.202 341.853 154.628 341.853L271.747 341.853C277.172 341.853 281.321 346.002 281.321 351.427C281.321 356.852 276.853 361.001 271.428 361.001ZM271.428 317.28L154.628 317.28C149.202 317.28 145.054 313.132 145.054 307.706C145.054 302.281 149.202 298.133 154.628 298.133L271.747 298.133C277.172 298.133 281.321 302.281 281.321 307.706C281.321 313.132 276.853 317.28 271.428 317.28Z" fill="#454b54" fill-rule="nonzero" opacity="1" stroke="none"/>
</g>
</g>
</svg>
