<?xml version="1.0" encoding="UTF-8" standalone="no"?>
<!DOCTYPE svg PUBLIC "-//W3C//DTD SVG 1.1//EN" "http://www.w3.org/Graphics/SVG/1.1/DTD/svg11.dtd">
<!-- Created with Vectornator (http://vectornator.io/) -->
<svg height="512.0px" stroke-miterlimit="10" style="fill-rule:nonzero;clip-rule:evenodd;stroke-linecap:round;stroke-linejoin:round;" version="1.1" viewBox="0 0 512 512" width="512.0px" xml:space="preserve" xmlns="http://www.w3.org/2000/svg" xmlns:xlink="http://www.w3.org/1999/xlink">
<defs/>
<g id="Layer-1">
<g opacity="1">
<path d="M238.051 283.685L238.051 67.195" fill="none" opacity="1" stroke="#4788c7" stroke-linecap="butt" stroke-linejoin="miter" stroke-width="1"/>
<path d="M79.5333 152.115L430.536 152.115L430.536 231.374L79.5333 231.374L79.5333 152.115Z" fill="#dff0fe" fill-rule="nonzero" opacity="1" stroke="none"/>
<path d="M424.875 157.777L424.875 225.713L85.1946 225.713L85.1946 157.777L424.875 157.777M436.198 146.454L73.8719 146.454L73.8719 237.035L436.198 237.035L436.198 146.454L436.198 146.454Z" fill="#4788c7" fill-rule="nonzero" opacity="1" stroke="none"/>
<path d="M45.5652 231.374L464.504 231.374L464.504 480.473L45.5652 480.473L45.5652 231.374Z" fill="#dff0fe" fill-rule="nonzero" opacity="1" stroke="none"/>
<path d="M458.843 237.035L458.843 474.812L51.2266 474.812L51.2266 237.035L458.843 237.035M470.166 225.713L39.9039 225.713L39.9039 486.134L470.166 486.134L470.166 225.713L470.166 225.713Z" fill="#4788c7" fill-rule="nonzero" opacity="1" stroke="none"/>
<path d="M266.358 418.198L289.003 418.198L289.003 474.812L266.358 474.812L266.358 418.198ZM311.648 418.198L334.294 418.198L334.294 474.812L311.648 474.812L311.648 418.198ZM356.939 418.198L379.584 418.198L379.584 474.812L356.939 474.812L356.939 418.198ZM402.23 418.198L424.875 418.198L424.875 474.812L402.23 474.812L402.23 418.198ZM85.1946 418.198L107.84 418.198L107.84 474.812L85.1946 474.812L85.1946 418.198ZM130.485 418.198L153.131 418.198L153.131 474.812L130.485 474.812L130.485 418.198ZM175.776 418.198L198.421 418.198L198.421 474.812L175.776 474.812L175.776 418.198ZM221.067 418.198L243.712 418.198L243.712 474.812L221.067 474.812L221.067 418.198ZM266.358 338.939L289.003 338.939L289.003 395.553L266.358 395.553L266.358 338.939ZM311.648 338.939L334.294 338.939L334.294 395.553L311.648 395.553L311.648 338.939ZM356.939 338.939L379.584 338.939L379.584 395.553L356.939 395.553L356.939 338.939ZM402.23 338.939L424.875 338.939L424.875 395.553L402.23 395.553L402.23 338.939ZM85.1946 338.939L107.84 338.939L107.84 395.553L85.1946 395.553L85.1946 338.939ZM130.485 338.939L153.131 338.939L153.131 395.553L130.485 395.553L130.485 338.939ZM175.776 338.939L198.421 338.939L198.421 395.553L175.776 395.553L175.776 338.939ZM221.067 338.939L243.712 338.939L243.712 395.553L221.067 395.553L221.067 338.939ZM266.358 259.681L289.003 259.681L289.003 316.294L266.358 316.294L266.358 259.681ZM311.648 259.681L334.294 259.681L334.294 316.294L311.648 316.294L311.648 259.681ZM356.939 259.681L379.584 259.681L379.584 316.294L356.939 316.294L356.939 259.681ZM402.23 259.681L424.875 259.681L424.875 316.294L402.23 316.294L402.23 259.681ZM243.712 180.422L266.358 180.422L266.358 225.713L243.712 225.713L243.712 180.422ZM289.003 180.422L311.648 180.422L311.648 225.713L289.003 225.713L289.003 180.422ZM334.294 180.422L356.939 180.422L356.939 225.713L334.294 225.713L334.294 180.422ZM379.584 180.422L402.23 180.422L402.23 225.713L379.584 225.713L379.584 180.422ZM198.421 180.422L221.067 180.422L221.067 225.713L198.421 225.713L198.421 180.422ZM153.131 180.422L175.776 180.422L175.776 225.713L153.131 225.713L153.131 180.422ZM107.84 180.422L130.485 180.422L130.485 225.713L107.84 225.713L107.84 180.422ZM85.1946 259.681L107.84 259.681L107.84 316.294L85.1946 316.294L85.1946 259.681ZM130.485 259.681L153.131 259.681L153.131 316.294L130.485 316.294L130.485 259.681ZM175.776 259.681L198.421 259.681L198.421 316.294L175.776 316.294L175.776 259.681Z" fill="#98ccfd" fill-rule="nonzero" opacity="1" stroke="none"/>
<path d="M221.067 259.681L243.712 259.681L243.712 316.294L221.067 316.294L221.067 259.681Z" fill="#98ccfd" fill-rule="nonzero" opacity="1" stroke="none"/>
<g opacity="1">
<path d="M290.882 117.638C281.507 117.638 274.374 114.875 266.108 111.682C258.25 108.647 249.487 105.262 238.062 104.379L238.062 72.8564L243.712 72.8564C262.361 72.8564 270.524 76.4457 277.714 79.6274C283.07 81.9825 288.12 84.2017 295.695 84.2017L295.695 84.2017C303.79 84.2017 313.89 81.6201 328.632 75.6984L328.632 106.383C313.528 114.048 301.469 117.638 290.882 117.638Z" fill="#98ccfd" fill-rule="nonzero" opacity="1" stroke="none"/>
<path d="M243.712 78.5177C261.16 78.5177 268.747 81.8579 275.438 84.8018C281.088 87.2928 286.931 89.8631 295.695 89.8631C302.964 89.8631 311.535 88.0288 322.971 83.9186L322.971 102.861C310.244 108.987 299.703 111.965 290.871 111.965C282.549 111.965 275.869 109.383 268.135 106.394C261.104 103.677 253.393 100.699 243.712 99.3062L243.712 78.5177M334.294 67.195C314.603 75.7097 303.541 78.5404 295.695 78.5404C280.001 78.5404 277.137 67.195 243.712 67.195L232.389 67.195L232.389 109.825C257.82 109.825 269.154 123.299 290.871 123.299C301.73 123.299 315.181 119.936 334.294 109.825L334.294 67.195L334.294 67.195Z" fill="#4788c7" fill-rule="nonzero" opacity="1" stroke="none"/>
</g>
</g>
</g>
</svg>
