<?xml version="1.0" encoding="UTF-8" standalone="no"?>
<!DOCTYPE svg PUBLIC "-//W3C//DTD SVG 1.1//EN" "http://www.w3.org/Graphics/SVG/1.1/DTD/svg11.dtd">
<!-- Created with Vectornator (http://vectornator.io/) -->
<svg height="931.797pt" stroke-miterlimit="10" style="fill-rule:nonzero;clip-rule:evenodd;stroke-linecap:round;stroke-linejoin:round;" version="1.1" viewBox="0 0 931.797 931.797" width="931.797pt" xml:space="preserve" xmlns="http://www.w3.org/2000/svg" xmlns:xlink="http://www.w3.org/1999/xlink">
<defs/>
<g id="Layer-1">
<path d="M514.03 835.543C498.2 837.583 482 838.613 465.9 838.613C360.75 838.613 262.27 794.633 192.28 718.813L239.6 718.813C261.66 718.813 279.54 700.933 279.54 678.883C279.54 656.823 261.66 638.943 239.6 638.943L93.18 638.943C71.12 638.943 53.24 656.823 53.24 678.883L53.24 825.303C53.24 847.363 71.12 865.243 93.18 865.243C115.23 865.243 133.11 847.363 133.11 825.303L133.11 772.403C218.12 864.843 337.93 918.483 465.9 918.483C485.41 918.483 505.04 917.223 524.25 914.763C546.14 911.933 561.58 891.913 558.76 870.043C555.93 848.173 535.86 832.783 514.03 835.543ZM405.74 97.998C425.44 94.803 445.68 93.179 465.9 93.179C571.15 93.179 669.57 137.134 739.54 212.982L692.19 212.982C670.13 212.982 652.25 230.859 652.25 252.916C652.25 274.973 670.13 292.85 692.19 292.85L838.61 292.85C860.67 292.85 878.55 274.973 878.55 252.916L878.55 106.491C878.55 84.434 860.67 66.557 838.61 66.557C816.56 66.557 798.68 84.434 798.68 106.491L798.68 159.337C713.7 66.903 593.98 13.311 465.9 13.311C441.4 13.311 416.84 15.281 392.94 19.168C371.16 22.709 356.4 43.222 359.94 64.986C363.48 86.75 383.99 101.512 405.74 97.998ZM65.09 571.853C86.85 568.263 101.58 547.723 97.99 525.963C97.64 523.723 97.28 521.473 96.96 519.223C94.45 501.653 93.18 483.713 93.18 465.903C93.18 448.083 94.45 430.143 96.94 412.603C109.11 327.526 150.49 249.921 212.98 192.203L212.98 239.605C212.98 261.662 230.86 279.539 252.91 279.539C274.97 279.539 292.85 261.662 292.85 239.605L292.85 93.179C292.85 71.122 274.97 53.245 252.91 53.245L106.49 53.245C84.43 53.245 66.55 71.122 66.55 93.179C66.55 115.236 84.43 133.114 106.49 133.114L159.23 133.114C83.11 203.251 32.7 297.709 17.87 401.313C14.84 422.613 13.31 444.333 13.31 465.903C13.31 487.463 14.84 509.183 17.89 530.503C18.29 533.333 18.71 536.153 19.19 538.963C22.41 558.523 39.34 572.393 58.53 572.393C60.7 572.393 62.89 572.213 65.09 571.853ZM811.99 811.993L757.41 811.993C859.23 726.653 918.48 601.683 918.48 465.903C918.48 441.403 916.51 416.843 912.63 392.943C909.08 371.163 888.51 356.383 866.81 359.943C845.03 363.483 830.27 383.993 833.81 405.753C836.99 425.443 838.61 445.683 838.61 465.903C838.61 577.923 789.64 681.023 705.5 751.333L705.5 705.503C705.5 683.443 687.62 665.573 665.57 665.573C643.51 665.573 625.63 683.443 625.63 705.503L625.63 851.933C625.63 873.983 643.51 891.863 665.57 891.863L811.99 891.863C834.05 891.863 851.93 873.983 851.93 851.933C851.93 829.873 834.05 811.993 811.99 811.993Z" fill="#00d9c8" fill-rule="nonzero" opacity="1" stroke="none"/>
<path d="M465.9 931.793C347.08 931.793 232.39 885.873 146.42 804.823L146.42 825.303C146.42 854.673 122.54 878.553 93.18 878.553C63.81 878.553 39.93 854.673 39.93 825.303L39.93 678.883C39.93 649.513 63.81 625.633 93.18 625.633L239.6 625.633C268.97 625.633 292.85 649.513 292.85 678.883C292.85 708.243 268.97 732.123 239.6 732.123L224.61 732.123C290.32 791.683 376.62 825.303 465.9 825.303C481.4 825.303 497.03 824.303 512.33 822.323C512.34 822.323 512.35 822.323 512.37 822.323C541.3 818.703 568.21 839.283 571.96 868.333C575.7 897.453 555.07 924.193 525.96 927.953C506.14 930.503 485.94 931.793 465.9 931.793ZM133.11 759.093C136.76 759.093 140.34 760.603 142.91 763.393C225.77 853.503 343.5 905.173 465.9 905.173C484.81 905.173 503.87 903.953 522.55 901.553C537.11 899.673 547.43 886.303 545.55 871.753C543.67 857.213 530.35 846.873 515.71 848.743C499.29 850.863 482.53 851.933 465.9 851.933C358.58 851.933 255.3 806.713 182.5 727.853C178.9 723.963 177.97 718.323 180.09 713.473C182.2 708.633 186.99 705.503 192.28 705.503L239.6 705.503C254.28 705.503 266.22 693.563 266.22 678.883C266.22 664.203 254.28 652.253 239.6 652.253L93.18 652.253C78.49 652.253 66.55 664.203 66.55 678.883L66.55 825.303C66.55 839.993 78.49 851.933 93.18 851.933C107.86 851.933 119.8 839.993 119.8 825.303L119.8 772.403C119.8 766.923 123.17 761.993 128.28 760.003C129.85 759.403 131.49 759.093 133.11 759.093ZM838.61 306.162L692.19 306.162C662.82 306.162 638.94 282.281 638.94 252.916C638.94 223.551 662.82 199.671 692.19 199.671L707.22 199.671C641.54 140.115 555.24 106.491 465.9 106.491C446.41 106.491 426.88 108.048 407.88 111.15C407.88 111.15 407.88 111.15 407.87 111.15C378.95 115.755 351.48 96.081 346.78 67.129C344.51 53.085 347.84 39.002 356.14 27.474C364.46 15.933 376.76 8.333 390.81 6.043C415.43 2.023 440.71 0 465.9 0C584.77 0 699.44 45.897 785.37 126.924L785.37 106.491C785.37 77.126 809.25 53.245 838.61 53.245C867.98 53.245 891.86 77.126 891.86 106.491L891.86 252.916C891.86 282.281 867.98 306.162 838.61 306.162ZM692.19 226.293C677.51 226.293 665.57 238.234 665.57 252.916C665.57 267.599 677.51 279.539 692.19 279.539L838.61 279.539C853.3 279.539 865.24 267.599 865.24 252.916L865.24 106.491C865.24 91.808 853.3 79.868 838.61 79.868C823.93 79.868 811.99 91.808 811.99 106.491L811.99 159.337C811.99 164.821 808.62 169.746 803.51 171.743C798.4 173.74 792.6 172.395 788.87 168.349C706.07 78.284 588.35 26.622 465.9 26.622C442.13 26.622 418.29 28.539 395.07 32.32C388.05 33.451 381.9 37.258 377.75 43.035C373.59 48.813 371.93 55.854 373.07 62.869C375.42 77.339 389.1 87.242 403.64 84.86C424.03 81.545 444.98 79.868 465.9 79.868C573.26 79.868 676.57 125.087 749.32 203.957C752.9 207.844 753.85 213.474 751.73 218.32C749.6 223.165 744.82 226.293 739.54 226.293L692.19 226.293ZM405.74 97.998L405.87 97.998L405.74 97.998ZM58.53 585.703C32.37 585.703 10.3 566.963 6.04 541.103C5.56 538.223 5.12 535.293 4.7 532.363C1.58 510.493 0 488.113 0 465.903C0 443.673 1.58 421.303 4.71 399.433C18.25 304.764 61.27 216.057 126.85 146.425L106.49 146.425C77.12 146.425 53.24 122.544 53.24 93.179C53.24 63.814 77.12 39.934 106.49 39.934L252.91 39.934C282.28 39.934 306.16 63.814 306.16 93.179L306.16 239.605C306.16 268.97 282.28 292.85 252.91 292.85C223.55 292.85 199.67 268.97 199.67 239.605L199.67 224.536C151.69 277.462 120.22 343.833 110.12 414.493C107.71 431.453 106.49 448.753 106.49 465.903C106.49 483.043 107.71 500.363 110.12 517.343L111.12 523.803C113.44 537.823 110.15 551.903 101.86 563.453C93.56 575.023 81.28 582.653 67.25 584.973C64.33 585.473 61.4 585.703 58.53 585.703ZM106.49 66.557C91.81 66.557 79.86 78.497 79.86 93.179C79.86 107.862 91.81 119.802 106.49 119.802L159.23 119.802C164.71 119.802 169.64 123.17 171.63 128.282C173.63 133.38 172.29 139.184 168.25 142.911C94 211.331 45.28 303.766 31.05 403.213C28.11 423.833 26.62 444.933 26.62 465.903C26.62 486.863 28.11 507.963 31.05 528.613C31.44 531.353 31.86 534.063 32.3 536.773C34.67 551.133 48.18 561.073 62.89 558.723C62.89 558.723 62.89 558.723 62.91 558.723C69.92 557.563 76.07 553.743 80.21 547.953C84.35 542.173 86 535.113 84.84 528.113L83.76 521.113C81.18 502.853 79.86 484.293 79.86 465.903C79.86 447.493 81.18 428.933 83.76 410.723C96.24 323.573 138.91 242.493 203.94 182.432C207.83 178.838 213.48 177.893 218.32 180.01C223.16 182.139 226.29 186.918 226.29 192.203L226.29 239.605C226.29 254.287 238.23 266.227 252.91 266.227C267.6 266.227 279.54 254.287 279.54 239.605L279.54 93.179C279.54 78.497 267.6 66.557 252.91 66.557L106.49 66.557ZM811.99 905.173L665.57 905.173C636.2 905.173 612.32 881.293 612.32 851.933L612.32 705.503C612.32 676.143 636.2 652.253 665.57 652.253C694.93 652.253 718.81 676.143 718.81 705.503L718.81 721.293C786.82 654.253 825.3 562.723 825.3 465.903C825.3 446.413 823.75 426.883 820.64 407.883C815.93 378.913 835.69 351.503 864.66 346.783C878.63 344.523 892.74 347.813 904.31 356.133C915.87 364.453 923.47 376.763 925.76 390.793C929.77 415.453 931.79 440.703 931.79 465.903C931.79 592.213 881.24 711.643 791.97 798.683L811.99 798.683C841.36 798.683 865.24 822.563 865.24 851.933C865.24 881.293 841.36 905.173 811.99 905.173ZM665.57 678.883C650.88 678.883 638.94 690.823 638.94 705.503L638.94 851.933C638.94 866.613 650.88 878.553 665.57 878.553L811.99 878.553C826.67 878.553 838.61 866.613 838.61 851.933C838.61 837.243 826.67 825.303 811.99 825.303L757.41 825.303C751.81 825.303 746.82 821.803 744.92 816.543C742.98 811.273 744.58 805.393 748.87 801.793C848.21 718.533 905.17 596.113 905.17 465.903C905.17 442.133 903.25 418.313 899.47 395.073C898.34 388.063 894.52 381.903 888.74 377.733C882.95 373.573 875.89 371.863 868.94 373.063C854.44 375.423 844.58 389.123 846.93 403.613C850.25 424.023 851.93 444.983 851.93 465.903C851.93 580.563 801.67 688.333 714.05 761.543C710.07 764.863 704.57 765.563 699.87 763.393C695.18 761.203 692.19 756.503 692.19 751.323L692.19 705.503C692.19 690.823 680.25 678.883 665.57 678.883Z" fill="#1f212b" fill-rule="nonzero" opacity="1" stroke="none"/>
<path d="M632.73 192.269C631.56 192.269 630.38 191.977 629.32 191.338C570.8 156.435 501.54 141.247 433.28 148.062C429.57 148.502 426.36 145.759 425.99 142.112C425.61 138.465 428.28 135.19 431.94 134.831C503.02 127.576 575.17 143.55 636.12 179.903C639.28 181.793 640.31 185.867 638.44 189.035C637.2 191.111 634.99 192.269 632.73 192.269ZM791.43 492.423C791.29 492.423 791.15 492.423 791.03 492.413C787.35 492.193 784.57 489.033 784.78 485.373C785.17 478.933 785.37 472.433 785.37 465.903C785.37 462.223 788.35 459.243 792.02 459.243C795.7 459.243 798.68 462.223 798.68 465.903C798.68 472.723 798.48 479.473 798.07 486.173C797.85 489.713 794.93 492.423 791.43 492.423ZM736.66 654.403C735.37 654.403 734.09 654.043 732.95 653.273C729.9 651.223 729.09 647.083 731.14 644.033C758.01 604.113 775.13 559.773 782.03 512.233C782.55 508.583 785.97 506.143 789.57 506.603C793.2 507.133 795.72 510.523 795.21 514.153C788 563.673 770.17 609.863 742.19 651.463C740.9 653.373 738.79 654.403 736.66 654.403ZM465.9 798.683C431.09 798.683 396.77 793.333 363.93 782.763C360.43 781.643 358.5 777.893 359.63 774.393C360.76 770.893 364.52 768.963 368 770.103C399.52 780.233 432.47 785.373 465.9 785.373C469.57 785.373 472.55 788.353 472.55 792.023C472.55 795.703 469.57 798.683 465.9 798.683Z" fill="#1f212b" fill-rule="nonzero" opacity="1" stroke="none"/>
<path d="M326.64 767.543C325.69 767.543 324.71 767.333 323.81 766.913C314.66 762.583 305.64 757.773 296.97 752.683C293.81 750.803 292.75 746.733 294.62 743.563C296.48 740.393 300.55 739.343 303.74 741.203C312.06 746.113 320.73 750.723 329.51 754.863C332.83 756.433 334.25 760.413 332.67 763.723C331.52 766.153 329.13 767.543 326.64 767.543Z" fill="#1f212b" fill-rule="nonzero" opacity="1" stroke="none"/>
<path d="M139.77 472.553C136.09 472.553 133.11 469.573 133.11 465.903C133.11 420.803 141.98 377.073 159.45 335.926C160.9 332.531 164.83 330.947 168.19 332.398C171.57 333.823 173.15 337.736 171.71 341.113C154.93 380.623 146.42 422.593 146.42 465.903C146.42 469.573 143.44 472.553 139.77 472.553Z" fill="#1f212b" fill-rule="nonzero" opacity="1" stroke="none"/>
<path d="M184.6 307.426C183.45 307.426 182.3 307.133 181.23 306.508C178.06 304.644 177.01 300.571 178.86 297.389C181.64 292.677 184.55 288.018 187.54 283.439C189.56 280.364 193.69 279.526 196.75 281.522C199.83 283.532 200.68 287.672 198.67 290.734C195.78 295.126 193 299.599 190.34 304.138C189.1 306.255 186.88 307.426 184.6 307.426Z" fill="#1f212b" fill-rule="nonzero" opacity="1" stroke="none"/>
</g>
</svg>
