<?xml version="1.0" encoding="UTF-8" standalone="no"?>
<!DOCTYPE svg PUBLIC "-//W3C//DTD SVG 1.1//EN" "http://www.w3.org/Graphics/SVG/1.1/DTD/svg11.dtd">
<!-- Created with Vectornator (http://vectornator.io/) -->
<svg height="100%" stroke-miterlimit="10" style="fill-rule:nonzero;clip-rule:evenodd;stroke-linecap:round;stroke-linejoin:round;" version="1.1" viewBox="1189.67 696.377 991.481 991.481" width="100%" xml:space="preserve" xmlns="http://www.w3.org/2000/svg" xmlns:xlink="http://www.w3.org/1999/xlink">
<defs/>
<g id="Layer-1">
<path d="M1514.81 799.737C1505.39 799.737 1497.75 807.375 1497.75 816.797C1497.75 826.219 1505.39 833.857 1514.81 833.857C1524.23 833.857 1531.87 826.219 1531.87 816.797C1531.87 807.375 1524.23 799.737 1514.81 799.737ZM1583.05 799.737C1573.63 799.737 1565.99 807.375 1565.99 816.797C1565.99 826.219 1573.63 833.857 1583.05 833.857C1592.47 833.857 1600.11 826.219 1600.11 816.797C1600.11 807.375 1592.47 799.737 1583.05 799.737ZM1651.29 799.737C1641.87 799.737 1634.23 807.375 1634.23 816.797C1634.23 826.219 1641.87 833.857 1651.29 833.857C1660.71 833.857 1668.35 826.219 1668.35 816.797C1668.35 807.375 1660.71 799.737 1651.29 799.737ZM1719.53 799.737C1710.11 799.737 1702.47 807.375 1702.47 816.797C1702.47 826.219 1710.11 833.857 1719.53 833.857C1728.95 833.857 1736.59 826.219 1736.59 816.797C1736.59 807.375 1728.95 799.737 1719.53 799.737ZM1446.57 799.737C1437.15 799.737 1429.51 807.375 1429.51 816.797C1429.51 826.219 1437.15 833.857 1446.57 833.857C1455.99 833.857 1463.63 826.219 1463.63 816.797C1463.63 807.375 1455.99 799.737 1446.57 799.737ZM1787.77 799.737C1778.35 799.737 1770.71 807.375 1770.71 816.797C1770.71 826.219 1778.35 833.857 1787.77 833.857C1797.19 833.857 1804.83 826.219 1804.83 816.797C1804.83 807.375 1797.19 799.737 1787.77 799.737ZM1856.01 799.737C1846.59 799.737 1838.95 807.375 1838.95 816.797C1838.95 826.219 1846.59 833.857 1856.01 833.857C1865.43 833.857 1873.07 826.219 1873.07 816.797C1873.07 807.375 1865.43 799.737 1856.01 799.737ZM1924.25 799.737C1914.83 799.737 1907.19 807.375 1907.19 816.797C1907.19 826.219 1914.83 833.857 1924.25 833.857C1933.67 833.857 1941.31 826.219 1941.31 816.797C1941.31 807.375 1933.67 799.737 1924.25 799.737ZM1378.33 799.737C1368.91 799.737 1361.27 807.375 1361.27 816.797C1361.27 826.219 1368.91 833.857 1378.33 833.857C1387.75 833.857 1395.39 826.219 1395.39 816.797C1395.39 807.375 1387.75 799.737 1378.33 799.737ZM1992.49 799.737C1983.07 799.737 1975.43 807.375 1975.43 816.797C1975.43 826.219 1983.07 833.857 1992.49 833.857C2001.91 833.857 2009.55 826.219 2009.55 816.797C2009.55 807.375 2001.91 799.737 1992.49 799.737ZM1514.81 1550.38C1505.39 1550.38 1497.75 1558.02 1497.75 1567.44C1497.75 1576.86 1505.39 1584.5 1514.81 1584.5C1524.23 1584.5 1531.87 1576.86 1531.87 1567.44C1531.87 1558.02 1524.23 1550.38 1514.81 1550.38ZM1583.05 1550.38C1573.63 1550.38 1565.99 1558.02 1565.99 1567.44C1565.99 1576.86 1573.63 1584.5 1583.05 1584.5C1592.47 1584.5 1600.11 1576.86 1600.11 1567.44C1600.11 1558.02 1592.47 1550.38 1583.05 1550.38ZM1651.29 1550.38C1641.87 1550.38 1634.23 1558.02 1634.23 1567.44C1634.23 1576.86 1641.87 1584.5 1651.29 1584.5C1660.71 1584.5 1668.35 1576.86 1668.35 1567.44C1668.35 1558.02 1660.71 1550.38 1651.29 1550.38ZM1719.53 1550.38C1710.11 1550.38 1702.47 1558.02 1702.47 1567.44C1702.47 1576.86 1710.11 1584.5 1719.53 1584.5C1728.95 1584.5 1736.59 1576.86 1736.59 1567.44C1736.59 1558.02 1728.95 1550.38 1719.53 1550.38ZM1446.57 1550.38C1437.15 1550.38 1429.51 1558.02 1429.51 1567.44C1429.51 1576.86 1437.15 1584.5 1446.57 1584.5C1455.99 1584.5 1463.63 1576.86 1463.63 1567.44C1463.63 1558.02 1455.99 1550.38 1446.57 1550.38ZM1787.77 1550.38C1778.35 1550.38 1770.71 1558.02 1770.71 1567.44C1770.71 1576.86 1778.35 1584.5 1787.77 1584.5C1797.19 1584.5 1804.83 1576.86 1804.83 1567.44C1804.83 1558.02 1797.19 1550.38 1787.77 1550.38ZM1856.01 1550.38C1846.59 1550.38 1838.95 1558.02 1838.95 1567.44C1838.95 1576.86 1846.59 1584.5 1856.01 1584.5C1865.43 1584.5 1873.07 1576.86 1873.07 1567.44C1873.07 1558.02 1865.43 1550.38 1856.01 1550.38ZM1924.25 1550.38C1914.83 1550.38 1907.19 1558.02 1907.19 1567.44C1907.19 1576.86 1914.83 1584.5 1924.25 1584.5C1933.67 1584.5 1941.31 1576.86 1941.31 1567.44C1941.31 1558.02 1933.67 1550.38 1924.25 1550.38ZM1378.33 1550.38C1368.91 1550.38 1361.27 1558.02 1361.27 1567.44C1361.27 1576.86 1368.91 1584.5 1378.33 1584.5C1387.75 1584.5 1395.39 1576.86 1395.39 1567.44C1395.39 1558.02 1387.75 1550.38 1378.33 1550.38ZM1992.49 1550.38C1983.07 1550.38 1975.43 1558.02 1975.43 1567.44C1975.43 1576.86 1983.07 1584.5 1992.49 1584.5C2001.91 1584.5 2009.55 1576.86 2009.55 1567.44C2009.55 1558.02 2001.91 1550.38 1992.49 1550.38ZM2060.73 1004.46C2051.31 1004.46 2043.67 1012.1 2043.67 1021.52C2043.67 1030.94 2051.31 1038.58 2060.73 1038.58C2070.15 1038.58 2077.79 1030.94 2077.79 1021.52C2077.79 1012.1 2070.15 1004.46 2060.73 1004.46ZM2060.73 1072.7C2051.31 1072.7 2043.67 1080.34 2043.67 1089.76C2043.67 1099.18 2051.31 1106.82 2060.73 1106.82C2070.15 1106.82 2077.79 1099.18 2077.79 1089.76C2077.79 1080.34 2070.15 1072.7 2060.73 1072.7ZM2060.73 1140.94C2051.31 1140.94 2043.67 1148.58 2043.67 1158C2043.67 1167.42 2051.31 1175.06 2060.73 1175.06C2070.15 1175.06 2077.79 1167.42 2077.79 1158C2077.79 1148.58 2070.15 1140.94 2060.73 1140.94ZM2060.73 1209.18C2051.31 1209.18 2043.67 1216.82 2043.67 1226.24C2043.67 1235.66 2051.31 1243.3 2060.73 1243.3C2070.15 1243.3 2077.79 1235.66 2077.79 1226.24C2077.79 1216.82 2070.15 1209.18 2060.73 1209.18ZM2060.73 936.217C2051.31 936.217 2043.67 943.855 2043.67 953.277C2043.67 962.699 2051.31 970.337 2060.73 970.337C2070.15 970.337 2077.79 962.699 2077.79 953.277C2077.79 943.855 2070.15 936.217 2060.73 936.217ZM2060.73 1277.42C2051.31 1277.42 2043.67 1285.06 2043.67 1294.48C2043.67 1303.9 2051.31 1311.54 2060.73 1311.54C2070.15 1311.54 2077.79 1303.9 2077.79 1294.48C2077.79 1285.06 2070.15 1277.42 2060.73 1277.42ZM2060.73 1345.66C2051.31 1345.66 2043.67 1353.3 2043.67 1362.72C2043.67 1372.14 2051.31 1379.78 2060.73 1379.78C2070.15 1379.78 2077.79 1372.14 2077.79 1362.72C2077.79 1353.3 2070.15 1345.66 2060.73 1345.66ZM2060.73 1413.9C2051.31 1413.9 2043.67 1421.54 2043.67 1430.96C2043.67 1440.38 2051.31 1448.02 2060.73 1448.02C2070.15 1448.02 2077.79 1440.38 2077.79 1430.96C2077.79 1421.54 2070.15 1413.9 2060.73 1413.9ZM2060.73 867.977C2051.31 867.977 2043.67 875.615 2043.67 885.037C2043.67 894.459 2051.31 902.097 2060.73 902.097C2070.15 902.097 2077.79 894.459 2077.79 885.037C2077.79 875.615 2070.15 867.977 2060.73 867.977ZM2060.73 1482.14C2051.31 1482.14 2043.67 1489.78 2043.67 1499.2C2043.67 1508.62 2051.31 1516.26 2060.73 1516.26C2070.15 1516.26 2077.79 1508.62 2077.79 1499.2C2077.79 1489.78 2070.15 1482.14 2060.73 1482.14ZM1310.09 1004.46C1300.67 1004.46 1293.03 1012.1 1293.03 1021.52C1293.03 1030.94 1300.67 1038.58 1310.09 1038.58C1319.51 1038.58 1327.15 1030.94 1327.15 1021.52C1327.15 1012.1 1319.51 1004.46 1310.09 1004.46ZM1310.09 1072.7C1300.67 1072.7 1293.03 1080.34 1293.03 1089.76C1293.03 1099.18 1300.67 1106.82 1310.09 1106.82C1319.51 1106.82 1327.15 1099.18 1327.15 1089.76C1327.15 1080.34 1319.51 1072.7 1310.09 1072.7ZM1310.09 1140.94C1300.67 1140.94 1293.03 1148.58 1293.03 1158C1293.03 1167.42 1300.67 1175.06 1310.09 1175.06C1319.51 1175.06 1327.15 1167.42 1327.15 1158C1327.15 1148.58 1319.51 1140.94 1310.09 1140.94ZM1310.09 1209.18C1300.67 1209.18 1293.03 1216.82 1293.03 1226.24C1293.03 1235.66 1300.67 1243.3 1310.09 1243.3C1319.51 1243.3 1327.15 1235.66 1327.15 1226.24C1327.15 1216.82 1319.51 1209.18 1310.09 1209.18ZM1310.09 936.217C1300.67 936.217 1293.03 943.855 1293.03 953.277C1293.03 962.699 1300.67 970.337 1310.09 970.337C1319.51 970.337 1327.15 962.699 1327.15 953.277C1327.15 943.855 1319.51 936.217 1310.09 936.217ZM1310.09 1277.42C1300.67 1277.42 1293.03 1285.06 1293.03 1294.48C1293.03 1303.9 1300.67 1311.54 1310.09 1311.54C1319.51 1311.54 1327.15 1303.9 1327.15 1294.48C1327.15 1285.06 1319.51 1277.42 1310.09 1277.42ZM1310.09 1345.66C1300.67 1345.66 1293.03 1353.3 1293.03 1362.72C1293.03 1372.14 1300.67 1379.78 1310.09 1379.78C1319.51 1379.78 1327.15 1372.14 1327.15 1362.72C1327.15 1353.3 1319.51 1345.66 1310.09 1345.66ZM1310.09 1413.9C1300.67 1413.9 1293.03 1421.54 1293.03 1430.96C1293.03 1440.38 1300.67 1448.02 1310.09 1448.02C1319.51 1448.02 1327.15 1440.38 1327.15 1430.96C1327.15 1421.54 1319.51 1413.9 1310.09 1413.9ZM1310.09 867.977C1300.67 867.977 1293.03 875.615 1293.03 885.037C1293.03 894.459 1300.67 902.097 1310.09 902.097C1319.51 902.097 1327.15 894.459 1327.15 885.037C1327.15 875.615 1319.51 867.977 1310.09 867.977ZM2060.73 799.737C2051.31 799.737 2043.67 807.375 2043.67 816.797C2043.67 826.219 2051.31 833.857 2060.73 833.857C2070.15 833.857 2077.79 826.219 2077.79 816.797C2077.79 807.375 2070.15 799.737 2060.73 799.737ZM1310.09 799.737C1300.67 799.737 1293.03 807.375 1293.03 816.797C1293.03 826.219 1300.67 833.857 1310.09 833.857C1319.51 833.857 1327.15 826.219 1327.15 816.797C1327.15 807.375 1319.51 799.737 1310.09 799.737ZM2060.73 1550.38C2051.31 1550.38 2043.67 1558.02 2043.67 1567.44C2043.67 1576.86 2051.31 1584.5 2060.73 1584.5C2070.15 1584.5 2077.79 1576.86 2077.79 1567.44C2077.79 1558.02 2070.15 1550.38 2060.73 1550.38ZM1310.09 1550.38C1300.67 1550.38 1293.03 1558.02 1293.03 1567.44C1293.03 1576.86 1300.67 1584.5 1310.09 1584.5C1319.51 1584.5 1327.15 1576.86 1327.15 1567.44C1327.15 1558.02 1319.51 1550.38 1310.09 1550.38ZM1310.09 1482.14C1300.67 1482.14 1293.03 1489.78 1293.03 1499.2C1293.03 1508.62 1300.67 1516.26 1310.09 1516.26C1319.51 1516.26 1327.15 1508.62 1327.15 1499.2C1327.15 1489.78 1319.51 1482.14 1310.09 1482.14Z" fill="#4865ca" fill-rule="nonzero" opacity="1" stroke="none"/>
<path d="M1258.91 697.377L2111.91 697.377C2149.59 697.377 2180.15 727.932 2180.15 765.617L2180.15 1618.62C2180.15 1656.3 2149.59 1686.86 2111.91 1686.86L1258.91 1686.86C1221.22 1686.86 1190.67 1656.3 1190.67 1618.62L1190.67 765.617C1190.67 727.932 1221.22 697.377 1258.91 697.377Z" fill="none" opacity="1" stroke="#b75c00" stroke-linecap="butt" stroke-linejoin="miter" stroke-width="2"/>
<g fill="#000000" opacity="1" stroke="none">
<path d="M1548.91 1124.37L1513.21 1124.37L1513.21 1116.32C1513.21 1108.15 1511.28 1101.1 1507.43 1095.15C1503.58 1089.2 1497.11 1086.22 1488.01 1086.22C1483.11 1086.22 1479.14 1087.15 1476.11 1089.02C1473.07 1090.89 1470.62 1093.22 1468.76 1096.02C1466.89 1099.05 1465.61 1102.5 1464.91 1106.35C1464.21 1110.2 1463.86 1114.22 1463.86 1118.42C1463.86 1123.32 1464.03 1127.4 1464.38 1130.67C1464.73 1133.94 1465.61 1136.85 1467.01 1139.42C1468.41 1141.99 1470.45 1144.2 1473.13 1146.07C1475.82 1147.94 1479.49 1149.8 1484.16 1151.67L1511.46 1162.52C1519.39 1165.55 1525.81 1169.11 1530.71 1173.2C1535.61 1177.28 1539.46 1182 1542.26 1187.37C1544.82 1192.97 1546.57 1199.33 1547.51 1206.45C1548.44 1213.56 1548.91 1221.67 1548.91 1230.77C1548.91 1241.27 1547.86 1251.01 1545.76 1260C1543.66 1268.98 1540.27 1276.62 1535.61 1282.92C1530.71 1289.45 1524.29 1294.59 1516.36 1298.32C1508.42 1302.05 1498.74 1303.92 1487.31 1303.92C1478.67 1303.92 1470.62 1302.4 1463.16 1299.37C1455.69 1296.34 1449.27 1292.14 1443.91 1286.77C1438.54 1281.4 1434.28 1275.16 1431.13 1268.05C1427.98 1260.93 1426.41 1253.17 1426.41 1244.77L1426.41 1231.47L1462.11 1231.47L1462.11 1242.67C1462.11 1249.2 1464.03 1255.1 1467.88 1260.35C1471.73 1265.6 1478.21 1268.22 1487.31 1268.22C1493.37 1268.22 1498.1 1267.35 1501.48 1265.6C1504.87 1263.85 1507.49 1261.34 1509.36 1258.07C1511.22 1254.8 1512.33 1250.9 1512.68 1246.35C1513.03 1241.8 1513.21 1236.72 1513.21 1231.12C1513.21 1224.59 1512.97 1219.22 1512.51 1215.02C1512.04 1210.82 1511.11 1207.44 1509.71 1204.87C1508.07 1202.3 1505.92 1200.2 1503.23 1198.57C1500.55 1196.94 1496.99 1195.19 1492.56 1193.32L1467.01 1182.82C1451.61 1176.52 1441.28 1168.18 1436.03 1157.8C1430.78 1147.41 1428.16 1134.4 1428.16 1118.77C1428.16 1109.44 1429.44 1100.57 1432.01 1092.17C1434.57 1083.77 1438.42 1076.54 1443.56 1070.47C1448.46 1064.4 1454.7 1059.56 1462.28 1055.95C1469.87 1052.33 1478.91 1050.52 1489.41 1050.52C1498.27 1050.52 1506.38 1052.15 1513.73 1055.42C1521.08 1058.69 1527.44 1063 1532.81 1068.37C1543.54 1079.57 1548.91 1092.4 1548.91 1106.87L1548.91 1124.37Z"/>
<path d="M1575.51 1301.82L1575.51 1052.62L1611.21 1052.62L1611.21 1266.12L1681.91 1266.12L1681.91 1301.82L1575.51 1301.82Z"/>
<path d="M1706.06 1301.82L1706.06 1052.62L1741.76 1052.62L1741.76 1301.82L1706.06 1301.82Z"/>
<path d="M1776.41 1301.82L1776.41 1052.62L1810.71 1052.62L1856.56 1184.57L1857.26 1184.57L1902.76 1052.62L1937.41 1052.62L1937.41 1301.82L1901.71 1301.82L1901.71 1150.27L1901.01 1150.27L1865.66 1257.37L1847.81 1257.37L1812.81 1150.27L1812.11 1150.27L1812.11 1301.82L1776.41 1301.82Z"/>
</g>
</g>
</svg>
