<?xml version="1.0" encoding="UTF-8" standalone="no"?>
<!DOCTYPE svg PUBLIC "-//W3C//DTD SVG 1.1//EN" "http://www.w3.org/Graphics/SVG/1.1/DTD/svg11.dtd">
<!-- Created with Vectornator (http://vectornator.io/) -->
<svg height="100%" stroke-miterlimit="10" style="fill-rule:nonzero;clip-rule:evenodd;stroke-linecap:round;stroke-linejoin:round;" version="1.1" viewBox="1238.88 572.304 1064.14 1054.57" width="100%" xml:space="preserve" xmlns="http://www.w3.org/2000/svg" xmlns:xlink="http://www.w3.org/1999/xlink">
<defs/>
<g id="Layer-1">
<path d="M1357 1594.95L1270.81 1509.81L1464.48 1318.27C1464.48 1318.27 1464.48 1318.27 1465.54 1318.27L1551.74 1403.4L1357 1594.95L1357 1594.95Z" fill="#65c900" fill-rule="nonzero" opacity="1" stroke="none"/>
<path d="M1357 1626.87C1348.49 1626.87 1341.04 1623.68 1334.65 1617.29L1248.46 1532.16C1242.07 1525.78 1238.88 1518.33 1238.88 1509.81C1238.88 1501.3 1242.07 1492.79 1248.46 1487.47L1442.13 1295.92C1453.84 1284.22 1475.12 1284.22 1486.83 1295.92L1573.02 1381.05C1579.41 1387.44 1582.6 1394.89 1582.6 1403.4C1582.6 1411.91 1579.41 1419.36 1574.09 1425.75L1380.41 1617.29C1374.03 1623.68 1365.51 1626.87 1357 1626.87ZM1316.56 1509.81L1357 1550.25L1505.98 1403.4L1465.54 1362.96L1316.56 1509.81Z" fill="#454b54" fill-rule="nonzero" opacity="1" stroke="none"/>
<path d="M2271.1 1007.54C2271.1 785.133 2089.13 605.292 1864.6 605.292C1640.06 605.292 1458.1 785.133 1458.1 1007.54C1458.1 1229.94 1640.06 1408.72 1864.6 1408.72C2089.13 1408.72 2271.1 1228.88 2271.1 1007.54ZM1560.25 1007.54C1560.25 840.468 1696.46 706.386 1864.6 706.386C2032.73 706.386 2168.94 841.532 2168.94 1007.54C2168.94 1173.55 2032.73 1308.69 1864.6 1308.69C1696.46 1308.69 1560.25 1173.55 1560.25 1007.54Z" fill="#ffffff" fill-rule="nonzero" opacity="1" stroke="none"/>
<path d="M1864.6 1311.88C1698.59 1311.88 1563.45 1175.67 1563.45 1007.54C1563.45 839.404 1698.59 703.194 1864.6 703.194C2030.6 703.194 2165.75 839.404 2165.75 1007.54C2165.75 1175.67 2031.67 1311.88 1864.6 1311.88Z" fill="#e2d3c7" fill-rule="nonzero" opacity="1" stroke="none"/>
<path d="M1864.6 1440.64C1623.04 1440.64 1426.17 1245.91 1426.17 1006.47C1426.17 767.042 1623.04 572.304 1864.6 572.304C2106.16 572.304 2303.03 768.106 2303.03 1007.54C2303.03 1246.97 2106.16 1440.64 1864.6 1440.64ZM1864.6 637.217C1658.15 637.217 1490.02 803.223 1490.02 1007.54C1490.02 1211.85 1658.15 1376.8 1864.6 1376.8C2071.04 1376.8 2239.18 1211.85 2239.18 1007.54C2239.18 803.223 2071.04 637.217 1864.6 637.217Z" fill="#454b54" fill-rule="nonzero" opacity="1" stroke="none"/>
<path d="M1480.44 1359.77C1480.44 1352.32 1483.63 1345.94 1488.96 1339.55L1558.12 1271.45C1568.77 1260.8 1586.86 1260.8 1597.5 1271.45C1608.14 1282.09 1608.14 1300.18 1597.5 1310.82L1528.33 1378.92C1517.69 1389.57 1499.6 1389.57 1488.96 1378.92C1482.57 1374.67 1480.44 1367.22 1480.44 1359.77Z" fill="#454b54" fill-rule="nonzero" opacity="1" stroke="none"/>
<path d="M1665.6 963.909C1662.41 963.909 1659.22 963.909 1656.03 961.78C1641.13 956.46 1633.68 940.498 1639 925.6C1673.05 829.827 1763.5 764.914 1864.6 764.914C1879.5 764.914 1892.27 777.684 1892.27 792.582C1892.27 807.48 1879.5 820.249 1864.6 820.249C1786.92 820.249 1717.75 869.2 1692.21 943.69C1687.95 956.46 1677.31 963.909 1665.6 963.909Z" fill="#ffffff" fill-rule="nonzero" opacity="1" stroke="none"/>
<path d="M1653.9 1035.21C1639 1035.21 1626.23 1022.44 1626.23 1007.54L1626.23 1003.28C1626.23 988.384 1639 975.614 1653.9 975.614C1653.9 975.614 1653.9 975.614 1654.96 975.614C1669.86 975.614 1682.63 988.384 1682.63 1004.35L1682.63 1007.54C1681.57 1022.44 1668.8 1035.21 1653.9 1035.21Z" fill="#ffffff" fill-rule="nonzero" opacity="1" stroke="none"/>
</g>
</svg>
