<?xml version="1.0" encoding="UTF-8" standalone="no"?>
<!DOCTYPE svg PUBLIC "-//W3C//DTD SVG 1.1//EN" "http://www.w3.org/Graphics/SVG/1.1/DTD/svg11.dtd">
<!-- Created with Vectornator (http://vectornator.io/) -->
<svg height="100%" stroke-miterlimit="10" style="fill-rule:nonzero;clip-rule:evenodd;stroke-linecap:round;stroke-linejoin:round;" version="1.1" viewBox="1329.02 660.017 931.797 931.797" width="100%" xml:space="preserve" xmlns="http://www.w3.org/2000/svg" xmlns:xlink="http://www.w3.org/1999/xlink">
<defs/>
<g id="Layer-1">
<path d="M1843.05 1495.56C1827.22 1497.6 1811.02 1498.63 1794.92 1498.63C1689.77 1498.63 1591.29 1454.65 1521.3 1378.83L1568.62 1378.83C1590.68 1378.83 1608.56 1360.95 1608.56 1338.9C1608.56 1316.84 1590.68 1298.96 1568.62 1298.96L1422.2 1298.96C1400.14 1298.96 1382.26 1316.84 1382.26 1338.9L1382.26 1485.32C1382.26 1507.38 1400.14 1525.26 1422.2 1525.26C1444.25 1525.26 1462.13 1507.38 1462.13 1485.32L1462.13 1432.42C1547.14 1524.86 1666.95 1578.5 1794.92 1578.5C1814.43 1578.5 1834.06 1577.24 1853.27 1574.78C1875.16 1571.95 1890.6 1551.93 1887.78 1530.06C1884.95 1508.19 1864.88 1492.8 1843.05 1495.56ZM1734.76 758.015C1754.46 754.82 1774.7 753.196 1794.92 753.196C1900.17 753.196 1998.59 797.151 2068.56 872.999L2021.21 872.999C1999.15 872.999 1981.27 890.876 1981.27 912.933C1981.27 934.99 1999.15 952.867 2021.21 952.867L2167.63 952.867C2189.69 952.867 2207.57 934.99 2207.57 912.933L2207.57 766.508C2207.57 744.451 2189.69 726.574 2167.63 726.574C2145.58 726.574 2127.7 744.451 2127.7 766.508L2127.7 819.354C2042.72 726.92 1923 673.328 1794.92 673.328C1770.42 673.328 1745.86 675.298 1721.96 679.185C1700.18 682.726 1685.42 703.239 1688.96 725.003C1692.5 746.767 1713.01 761.529 1734.76 758.015ZM1394.11 1231.87C1415.87 1228.28 1430.6 1207.74 1427.01 1185.98C1426.66 1183.74 1426.3 1181.49 1425.98 1179.24C1423.47 1161.67 1422.2 1143.73 1422.2 1125.92C1422.2 1108.1 1423.47 1090.16 1425.96 1072.62C1438.13 987.543 1479.51 909.938 1542 852.22L1542 899.622C1542 921.679 1559.88 939.556 1581.93 939.556C1603.99 939.556 1621.87 921.679 1621.87 899.622L1621.87 753.196C1621.87 731.139 1603.99 713.262 1581.93 713.262L1435.51 713.262C1413.45 713.262 1395.57 731.139 1395.57 753.196C1395.57 775.253 1413.45 793.131 1435.51 793.131L1488.25 793.131C1412.13 863.268 1361.72 957.726 1346.89 1061.33C1343.86 1082.63 1342.33 1104.35 1342.33 1125.92C1342.33 1147.48 1343.86 1169.2 1346.91 1190.52C1347.31 1193.35 1347.73 1196.17 1348.21 1198.98C1351.43 1218.54 1368.36 1232.41 1387.55 1232.41C1389.72 1232.41 1391.91 1232.23 1394.11 1231.87ZM2141.01 1472.01L2086.43 1472.01C2188.25 1386.67 2247.5 1261.7 2247.5 1125.92C2247.5 1101.42 2245.53 1076.86 2241.65 1052.96C2238.1 1031.18 2217.53 1016.4 2195.83 1019.96C2174.05 1023.5 2159.29 1044.01 2162.83 1065.77C2166.01 1085.46 2167.63 1105.7 2167.63 1125.92C2167.63 1237.94 2118.66 1341.04 2034.52 1411.35L2034.52 1365.52C2034.52 1343.46 2016.64 1325.59 1994.59 1325.59C1972.53 1325.59 1954.65 1343.46 1954.65 1365.52L1954.65 1511.95C1954.65 1534 1972.53 1551.88 1994.59 1551.88L2141.01 1551.88C2163.07 1551.88 2180.95 1534 2180.95 1511.95C2180.95 1489.89 2163.07 1472.01 2141.01 1472.01Z" fill="#78a2d2" fill-rule="nonzero" opacity="1" stroke="none"/>
<path d="M1794.92 1591.81C1676.1 1591.81 1561.41 1545.89 1475.44 1464.84L1475.44 1485.32C1475.44 1514.69 1451.56 1538.57 1422.2 1538.57C1392.83 1538.57 1368.95 1514.69 1368.95 1485.32L1368.95 1338.9C1368.95 1309.53 1392.83 1285.65 1422.2 1285.65L1568.62 1285.65C1597.99 1285.65 1621.87 1309.53 1621.87 1338.9C1621.87 1368.26 1597.99 1392.14 1568.62 1392.14L1553.63 1392.14C1619.34 1451.7 1705.64 1485.32 1794.92 1485.32C1810.42 1485.32 1826.05 1484.32 1841.35 1482.34C1841.36 1482.34 1841.37 1482.34 1841.39 1482.34C1870.32 1478.72 1897.23 1499.3 1900.98 1528.35C1904.72 1557.47 1884.09 1584.21 1854.98 1587.97C1835.16 1590.52 1814.96 1591.81 1794.92 1591.81ZM1462.13 1419.11C1465.78 1419.11 1469.36 1420.62 1471.93 1423.41C1554.79 1513.52 1672.52 1565.19 1794.92 1565.19C1813.83 1565.19 1832.89 1563.97 1851.57 1561.57C1866.13 1559.69 1876.45 1546.32 1874.57 1531.77C1872.69 1517.23 1859.37 1506.89 1844.73 1508.76C1828.31 1510.88 1811.55 1511.95 1794.92 1511.95C1687.6 1511.95 1584.32 1466.73 1511.52 1387.87C1507.92 1383.98 1506.99 1378.34 1509.11 1373.49C1511.22 1368.65 1516.01 1365.52 1521.3 1365.52L1568.62 1365.52C1583.3 1365.52 1595.24 1353.58 1595.24 1338.9C1595.24 1324.22 1583.3 1312.27 1568.62 1312.27L1422.2 1312.27C1407.51 1312.27 1395.57 1324.22 1395.57 1338.9L1395.57 1485.32C1395.57 1500.01 1407.51 1511.95 1422.2 1511.95C1436.88 1511.95 1448.82 1500.01 1448.82 1485.32L1448.82 1432.42C1448.82 1426.94 1452.19 1422.01 1457.3 1420.02C1458.87 1419.42 1460.51 1419.11 1462.13 1419.11ZM2167.63 966.179L2021.21 966.179C1991.84 966.179 1967.96 942.298 1967.96 912.933C1967.96 883.568 1991.84 859.688 2021.21 859.688L2036.24 859.688C1970.56 800.132 1884.26 766.508 1794.92 766.508C1775.43 766.508 1755.9 768.065 1736.9 771.167C1736.9 771.167 1736.9 771.167 1736.89 771.167C1707.97 775.772 1680.5 756.098 1675.8 727.146C1673.53 713.102 1676.86 699.019 1685.16 687.491C1693.48 675.95 1705.78 668.35 1719.83 666.06C1744.45 662.04 1769.73 660.017 1794.92 660.017C1913.79 660.017 2028.46 705.914 2114.39 786.941L2114.39 766.508C2114.39 737.143 2138.27 713.262 2167.63 713.262C2197 713.262 2220.88 737.143 2220.88 766.508L2220.88 912.933C2220.88 942.298 2197 966.179 2167.63 966.179ZM2021.21 886.31C2006.53 886.31 1994.59 898.251 1994.59 912.933C1994.59 927.616 2006.53 939.556 2021.21 939.556L2167.63 939.556C2182.32 939.556 2194.26 927.616 2194.26 912.933L2194.26 766.508C2194.26 751.825 2182.32 739.885 2167.63 739.885C2152.95 739.885 2141.01 751.825 2141.01 766.508L2141.01 819.354C2141.01 824.838 2137.64 829.763 2132.53 831.76C2127.42 833.757 2121.62 832.412 2117.89 828.366C2035.09 738.301 1917.37 686.639 1794.92 686.639C1771.15 686.639 1747.31 688.556 1724.09 692.337C1717.07 693.468 1710.92 697.275 1706.77 703.052C1702.61 708.83 1700.95 715.871 1702.09 722.886C1704.44 737.356 1718.12 747.259 1732.66 744.877C1753.05 741.562 1774 739.885 1794.92 739.885C1902.28 739.885 2005.59 785.104 2078.34 863.974C2081.92 867.861 2082.87 873.491 2080.75 878.337C2078.62 883.182 2073.84 886.31 2068.56 886.31L2021.21 886.31ZM1734.76 758.015L1734.89 758.015L1734.76 758.015ZM1387.55 1245.72C1361.39 1245.72 1339.32 1226.98 1335.06 1201.12C1334.58 1198.24 1334.14 1195.31 1333.72 1192.38C1330.6 1170.51 1329.02 1148.13 1329.02 1125.92C1329.02 1103.69 1330.6 1081.32 1333.73 1059.45C1347.27 964.781 1390.29 876.074 1455.87 806.442L1435.51 806.442C1406.14 806.442 1382.26 782.561 1382.26 753.196C1382.26 723.831 1406.14 699.951 1435.51 699.951L1581.93 699.951C1611.3 699.951 1635.18 723.831 1635.18 753.196L1635.18 899.622C1635.18 928.987 1611.3 952.867 1581.93 952.867C1552.57 952.867 1528.69 928.987 1528.69 899.622L1528.69 884.553C1480.71 937.479 1449.24 1003.85 1439.14 1074.51C1436.73 1091.47 1435.51 1108.77 1435.51 1125.92C1435.51 1143.06 1436.73 1160.38 1439.14 1177.36L1440.14 1183.82C1442.46 1197.84 1439.17 1211.92 1430.88 1223.47C1422.58 1235.04 1410.3 1242.67 1396.27 1244.99C1393.35 1245.49 1390.42 1245.72 1387.55 1245.72ZM1435.51 726.574C1420.83 726.574 1408.88 738.514 1408.88 753.196C1408.88 767.879 1420.83 779.819 1435.51 779.819L1488.25 779.819C1493.73 779.819 1498.66 783.187 1500.65 788.299C1502.65 793.397 1501.31 799.201 1497.27 802.928C1423.02 871.348 1374.3 963.783 1360.07 1063.23C1357.13 1083.85 1355.64 1104.95 1355.64 1125.92C1355.64 1146.88 1357.13 1167.98 1360.07 1188.63C1360.46 1191.37 1360.88 1194.08 1361.32 1196.79C1363.69 1211.15 1377.2 1221.09 1391.91 1218.74C1391.91 1218.74 1391.91 1218.74 1391.93 1218.74C1398.94 1217.58 1405.09 1213.76 1409.23 1207.97C1413.37 1202.19 1415.02 1195.13 1413.86 1188.13L1412.78 1181.13C1410.2 1162.87 1408.88 1144.31 1408.88 1125.92C1408.88 1107.51 1410.2 1088.95 1412.78 1070.74C1425.26 983.59 1467.93 902.51 1532.96 842.449C1536.85 838.855 1542.5 837.91 1547.34 840.027C1552.18 842.156 1555.31 846.935 1555.31 852.22L1555.31 899.622C1555.31 914.304 1567.25 926.244 1581.93 926.244C1596.62 926.244 1608.56 914.304 1608.56 899.622L1608.56 753.196C1608.56 738.514 1596.62 726.574 1581.93 726.574L1435.51 726.574ZM2141.01 1565.19L1994.59 1565.19C1965.22 1565.19 1941.34 1541.31 1941.34 1511.95L1941.34 1365.52C1941.34 1336.16 1965.22 1312.27 1994.59 1312.27C2023.95 1312.27 2047.83 1336.16 2047.83 1365.52L2047.83 1381.31C2115.84 1314.27 2154.32 1222.74 2154.32 1125.92C2154.32 1106.43 2152.77 1086.9 2149.66 1067.9C2144.95 1038.93 2164.71 1011.52 2193.68 1006.8C2207.65 1004.54 2221.76 1007.83 2233.33 1016.15C2244.89 1024.47 2252.49 1036.78 2254.78 1050.81C2258.79 1075.47 2260.81 1100.72 2260.81 1125.92C2260.81 1252.23 2210.26 1371.66 2120.99 1458.7L2141.01 1458.7C2170.38 1458.7 2194.26 1482.58 2194.26 1511.95C2194.26 1541.31 2170.38 1565.19 2141.01 1565.19ZM1994.59 1338.9C1979.9 1338.9 1967.96 1350.84 1967.96 1365.52L1967.96 1511.95C1967.96 1526.63 1979.9 1538.57 1994.59 1538.57L2141.01 1538.57C2155.69 1538.57 2167.63 1526.63 2167.63 1511.95C2167.63 1497.26 2155.69 1485.32 2141.01 1485.32L2086.43 1485.32C2080.83 1485.32 2075.84 1481.82 2073.94 1476.56C2072 1471.29 2073.6 1465.41 2077.89 1461.81C2177.23 1378.55 2234.19 1256.13 2234.19 1125.92C2234.19 1102.15 2232.27 1078.33 2228.49 1055.09C2227.36 1048.08 2223.54 1041.92 2217.76 1037.75C2211.97 1033.59 2204.91 1031.88 2197.96 1033.08C2183.46 1035.44 2173.6 1049.14 2175.95 1063.63C2179.27 1084.04 2180.95 1105 2180.95 1125.92C2180.95 1240.58 2130.69 1348.35 2043.07 1421.56C2039.09 1424.88 2033.59 1425.58 2028.89 1423.41C2024.2 1421.22 2021.21 1416.52 2021.21 1411.34L2021.21 1365.52C2021.21 1350.84 2009.27 1338.9 1994.59 1338.9Z" fill="#1f212b" fill-rule="nonzero" opacity="1" stroke="none"/>
<path d="M1961.75 852.286C1960.58 852.286 1959.4 851.994 1958.34 851.355C1899.82 816.452 1830.56 801.264 1762.3 808.079C1758.59 808.519 1755.38 805.776 1755.01 802.129C1754.63 798.482 1757.3 795.207 1760.96 794.848C1832.04 787.593 1904.19 803.567 1965.14 839.92C1968.3 841.81 1969.33 845.884 1967.46 849.052C1966.22 851.128 1964.01 852.286 1961.75 852.286ZM2120.45 1152.44C2120.31 1152.44 2120.17 1152.44 2120.05 1152.43C2116.37 1152.21 2113.59 1149.05 2113.8 1145.39C2114.19 1138.95 2114.39 1132.45 2114.39 1125.92C2114.39 1122.24 2117.37 1119.26 2121.04 1119.26C2124.72 1119.26 2127.7 1122.24 2127.7 1125.92C2127.7 1132.74 2127.5 1139.49 2127.09 1146.19C2126.87 1149.73 2123.95 1152.44 2120.45 1152.44ZM2065.68 1314.42C2064.39 1314.42 2063.11 1314.06 2061.97 1313.29C2058.92 1311.24 2058.11 1307.1 2060.16 1304.05C2087.03 1264.13 2104.15 1219.79 2111.05 1172.25C2111.57 1168.6 2114.99 1166.16 2118.59 1166.62C2122.22 1167.15 2124.74 1170.54 2124.23 1174.17C2117.02 1223.69 2099.19 1269.88 2071.21 1311.48C2069.92 1313.39 2067.81 1314.42 2065.68 1314.42ZM1794.92 1458.7C1760.11 1458.7 1725.79 1453.35 1692.95 1442.78C1689.45 1441.66 1687.52 1437.91 1688.65 1434.41C1689.78 1430.91 1693.54 1428.98 1697.02 1430.12C1728.54 1440.25 1761.49 1445.39 1794.92 1445.39C1798.59 1445.39 1801.57 1448.37 1801.57 1452.04C1801.57 1455.72 1798.59 1458.7 1794.92 1458.7Z" fill="#1f212b" fill-rule="nonzero" opacity="1" stroke="none"/>
<path d="M1655.66 1427.56C1654.71 1427.56 1653.73 1427.35 1652.83 1426.93C1643.68 1422.6 1634.66 1417.79 1625.99 1412.7C1622.83 1410.82 1621.77 1406.75 1623.64 1403.58C1625.5 1400.41 1629.57 1399.36 1632.76 1401.22C1641.08 1406.13 1649.75 1410.74 1658.53 1414.88C1661.85 1416.45 1663.27 1420.43 1661.69 1423.74C1660.54 1426.17 1658.15 1427.56 1655.66 1427.56Z" fill="#1f212b" fill-rule="nonzero" opacity="1" stroke="none"/>
<path d="M1468.79 1132.57C1465.11 1132.57 1462.13 1129.59 1462.13 1125.92C1462.13 1080.82 1471 1037.09 1488.47 995.943C1489.92 992.548 1493.85 990.964 1497.21 992.415C1500.59 993.84 1502.17 997.753 1500.73 1001.13C1483.95 1040.64 1475.44 1082.61 1475.44 1125.92C1475.44 1129.59 1472.46 1132.57 1468.79 1132.57Z" fill="#1f212b" fill-rule="nonzero" opacity="1" stroke="none"/>
<path d="M1513.62 967.443C1512.47 967.443 1511.32 967.15 1510.25 966.525C1507.08 964.661 1506.03 960.588 1507.88 957.406C1510.66 952.694 1513.57 948.035 1516.56 943.456C1518.58 940.381 1522.71 939.543 1525.77 941.539C1528.85 943.549 1529.7 947.689 1527.69 950.751C1524.8 955.143 1522.02 959.616 1519.36 964.155C1518.12 966.272 1515.9 967.443 1513.62 967.443Z" fill="#1f212b" fill-rule="nonzero" opacity="1" stroke="none"/>
</g>
</svg>
