<?xml version="1.0" encoding="UTF-8" standalone="no"?>
<!DOCTYPE svg PUBLIC "-//W3C//DTD SVG 1.1//EN" "http://www.w3.org/Graphics/SVG/1.1/DTD/svg11.dtd">
<!-- Created with Vectornator (http://vectornator.io/) -->
<svg height="100%" stroke-miterlimit="10" style="fill-rule:nonzero;clip-rule:evenodd;stroke-linecap:round;stroke-linejoin:round;" version="1.1" viewBox="0 0 1024 1024" width="100%" xml:space="preserve" xmlns="http://www.w3.org/2000/svg" xmlns:vectornator="http://vectornator.io" xmlns:xlink="http://www.w3.org/1999/xlink">
<defs/>
<clipPath id="ArtboardFrame">
<rect height="1024" width="1024" x="0" y="0"/>
</clipPath>
<g clip-path="url(#ArtboardFrame)" id="Layer-1" vectornator:layerName="Layer 1">
<g fill="#00d873" opacity="1" stroke="none" vectornator:layerName="Curve 1">
<path d="M159.937 275.13C157.532 277.119 155.637 279.242 154.251 281.498C152.68 284.054 151.985 286.495 152.166 288.82C152.346 291.145 153.515 292.971 155.672 294.296C158.228 295.866 161.769 295.14 166.295 292.116C169.646 289.884 171.912 288.436 173.09 287.771C174.269 287.106 175.667 286.555 177.283 286.118C178.9 285.681 180.565 285.555 182.28 285.742C183.994 285.929 185.68 286.532 187.338 287.55C191.451 290.077 193.792 293.42 194.359 297.579C194.926 301.737 194.057 305.693 191.75 309.448C189.517 313.082 186.841 315.826 183.723 317.678L180.125 314.065C183.558 311.745 186.011 309.387 187.483 306.991C189.2 304.195 189.854 301.509 189.443 298.932C189.032 296.355 187.558 294.287 185.022 292.729C183.145 291.576 181.215 291.147 179.232 291.441C177.249 291.736 174.671 292.944 171.497 295.065C168.234 297.242 166.075 298.618 165.02 299.194C163.965 299.769 162.718 300.221 161.28 300.547C159.841 300.874 158.416 300.933 157.003 300.725C155.59 300.517 154.225 300.009 152.907 299.199C149.412 297.052 147.459 294.119 147.048 290.4C146.637 286.682 147.615 282.896 149.983 279.041C151.713 276.226 153.86 273.694 156.424 271.446L159.937 275.13Z"/>
<path d="M186.284 249.263C189.339 245.255 193.166 243.134 197.767 242.898C202.367 242.663 206.951 244.285 211.517 247.767C216.121 251.277 218.928 255.288 219.937 259.801C220.947 264.314 219.924 268.574 216.869 272.581C213.8 276.607 209.964 278.729 205.361 278.949C200.759 279.168 196.146 277.515 191.524 273.991C186.939 270.496 184.155 266.502 183.174 262.011C182.192 257.519 183.228 253.27 186.284 249.263ZM213.067 269.682C215.085 267.035 215.558 264.095 214.487 260.862C213.415 257.628 211.286 254.797 208.099 252.367C204.744 249.809 201.41 248.461 198.097 248.322C194.784 248.183 192.104 249.456 190.058 252.14C187.997 254.843 187.466 257.753 188.463 260.871C189.46 263.989 191.665 266.848 195.075 269.449C198.319 271.921 201.62 273.245 204.98 273.419C208.339 273.593 211.035 272.347 213.067 269.682Z"/>
<path d="M218.347 195.154L220.582 199.279C218.243 200.643 216.362 202.071 214.938 203.564C213.579 204.988 213.047 206.351 213.343 207.654C213.638 208.957 215.007 210.773 217.449 213.103L217.932 213.564L226.427 204.662L229.86 207.939L221.366 216.841L244.434 238.855L240.648 242.822L217.579 220.809L211.22 227.472L207.787 224.196L214.146 217.532L213.256 216.682C209.881 213.462 208.066 210.629 207.81 208.181C207.554 205.734 208.777 203.094 211.479 200.263C213.226 198.431 215.516 196.728 218.347 195.154Z"/>
<path d="M285.179 200.033C283.404 203.671 281.14 206.62 278.386 208.88C273.33 213.028 268.61 212.429 264.225 207.084L250.02 189.77L244.584 194.23L241.574 190.561L247.01 186.101L240.655 178.355L244.786 174.965L251.141 182.712L260.763 174.818L263.773 178.487L254.152 186.381L267.442 202.58C268.854 204.301 270.331 205.325 271.872 205.652C273.414 205.979 274.837 205.607 276.141 204.537C278.461 202.634 280.329 200.237 281.747 197.346L285.179 200.033Z"/>
<path d="M306 144.871L320.812 178.788L317.255 180.991L299.009 167.896L302.582 190.083L299.026 192.287L275.338 163.869L279.97 160.999C290.635 174.518 296.22 181.618 296.724 182.298L294.044 165.223L298.826 162.261L312.836 172.191L301.218 147.833L306 144.871Z"/>
<path d="M360.961 159.881L355.972 162.074C354.97 160.902 353.974 159.189 352.984 156.936C351.969 162.374 349.006 166.174 344.092 168.334C341.603 169.428 339.02 169.507 336.343 168.572C333.666 167.636 331.715 165.774 330.489 162.985C329.762 161.333 329.453 159.728 329.562 158.169C329.671 156.611 330.178 155.114 331.083 153.68C331.988 152.245 333.253 150.87 334.876 149.554C336.5 148.239 338.535 146.928 340.982 145.622L346.416 142.695L345.709 141.086C343.181 135.336 339.235 133.64 333.871 135.998C332.605 136.555 331.122 137.533 329.42 138.934C327.719 140.335 326.336 141.717 325.272 143.081L322.368 140.057C325.91 135.709 329.644 132.672 333.57 130.946C341.208 127.588 346.805 129.953 350.361 138.042L356.7 152.461C357.983 155.378 359.403 157.852 360.961 159.881ZM350.731 152.511L348.057 146.429C343.709 148.827 340.771 150.573 339.242 151.667C337.714 152.762 336.545 154.063 335.736 155.571C334.926 157.078 334.885 158.658 335.611 160.311C336.271 161.812 337.33 162.794 338.787 163.254C340.244 163.714 341.788 163.586 343.418 162.869C345.199 162.086 346.736 160.777 348.028 158.942C349.321 157.106 350.222 154.963 350.731 152.511Z"/>
<path d="M389.952 112.458L389.461 118.156C386.839 117.892 384.692 118.03 383.019 118.569C381.48 119.064 380.116 119.99 378.927 121.345C377.739 122.701 376.789 124.398 376.079 126.436C375.369 128.475 375.046 129.594 375.111 129.795L382.375 152.35L377.188 154.02L365.958 119.151L371.145 117.48L373.419 124.541C374.512 118.378 377.278 114.582 381.718 113.152C384.35 112.304 387.095 112.073 389.952 112.458Z"/>
<path d="M439.237 118.99L414.652 124.224C415.515 128.282 417.403 131.378 420.314 133.514C423.225 135.65 426.388 136.355 429.804 135.628C433.059 134.935 436.293 133.635 439.505 131.729L441.349 135.83C438.488 137.925 434.948 139.421 430.73 140.319C425.412 141.451 420.762 140.656 416.779 137.933C412.797 135.21 410.188 130.949 408.954 125.149C407.744 119.464 408.24 114.62 410.443 110.617C412.646 106.613 416.063 104.119 420.693 103.133C424.82 102.254 428.604 103.09 432.046 105.64C435.489 108.19 437.766 112.079 438.879 117.305L439.237 118.99ZM432.462 115.868C431.867 113.071 430.494 110.901 428.345 109.358C426.195 107.814 424.043 107.272 421.888 107.731C419.114 108.321 417.011 109.728 415.579 111.949C414.147 114.171 413.643 116.783 414.066 119.784L432.462 115.868Z"/>
<path d="M613.46 140.647L586.899 135.794L595.815 86.9964L601.487 88.0326L593.475 131.885L614.363 135.701L613.46 140.647Z"/>
<path d="M657.052 99.887C658.043 100.171 658.787 100.767 659.282 101.677C659.777 102.587 659.883 103.537 659.6 104.529C659.303 105.565 658.711 106.334 657.824 106.836C656.937 107.338 655.986 107.444 654.972 107.154C654.048 106.89 653.336 106.29 652.836 105.354C652.336 104.419 652.224 103.467 652.502 102.498C652.779 101.529 653.376 100.785 654.292 100.267C655.208 99.7494 656.128 99.6226 657.052 99.887ZM645.732 149.158L640.459 147.65L649.231 116.993L638.855 114.024L640.161 109.461L655.81 113.939L645.732 149.158Z"/>
<path d="M712.962 121.405L709.968 125.017C707.83 123.356 705.803 122.143 703.887 121.378C702.059 120.648 700.596 120.663 699.497 121.424C698.399 122.184 697.224 124.131 695.972 127.266L695.725 127.886L707.152 132.448L705.393 136.856L693.965 132.294L682.143 161.908L677.049 159.874L688.872 130.26L680.317 126.845L682.077 122.437L690.631 125.853L691.088 124.71C692.817 120.378 694.769 117.637 696.944 116.487C699.12 115.336 702.025 115.487 705.66 116.938C708.011 117.876 710.445 119.365 712.962 121.405Z"/>
<path d="M741.993 170.458L719.741 158.766C717.812 162.438 717.283 166.026 718.156 169.529C719.029 173.033 721.011 175.597 724.103 177.221C727.049 178.769 730.367 179.837 734.055 180.425L732.852 184.757C729.313 184.539 725.634 183.427 721.817 181.421C717.003 178.892 713.936 175.307 712.614 170.668C711.292 166.028 712.01 161.084 714.768 155.835C717.472 150.689 720.95 147.282 725.204 145.611C729.457 143.941 733.679 144.207 737.87 146.409C741.605 148.371 743.981 151.433 744.998 155.595C746.015 159.756 745.28 164.202 742.795 168.933L741.993 170.458ZM738.779 163.725C740.109 161.194 740.441 158.648 739.775 156.087C739.108 153.526 737.8 151.733 735.849 150.709C733.339 149.389 730.823 149.126 728.301 149.92C725.78 150.713 723.722 152.398 722.129 154.977L738.779 163.725Z"/>
<path d="M769.041 208.019C765.584 207.452 762.269 206.106 759.095 203.98C754.305 200.771 751.458 196.756 750.556 191.934C749.653 187.112 750.819 182.286 754.054 177.457C757.289 172.628 761.317 169.72 766.14 168.732C770.962 167.745 775.71 168.817 780.383 171.947C783.44 173.995 785.993 176.481 788.04 179.404L784.319 182.37C782.193 179.563 780.02 177.417 777.8 175.93C774.451 173.686 771.074 172.99 767.669 173.84C764.264 174.691 761.323 176.966 758.844 180.666C756.575 184.054 755.679 187.58 756.159 191.244C756.638 194.908 758.504 197.829 761.756 200.008C764.326 201.729 767.307 203.007 770.698 203.84L769.041 208.019Z"/>
<path d="M826.47 208.974L792.275 228.092C787.264 230.923 783.315 232.518 780.427 232.877C777.538 233.237 775.125 232.602 773.187 230.974C771.464 229.527 770.023 227.781 768.864 225.736L772.39 222.959C773.392 224.535 774.432 225.776 775.509 226.68C777.016 227.946 778.744 228.403 780.693 228.051C782.642 227.698 785.226 226.609 788.444 224.782L801.435 187.944L806.012 191.788L795.162 220.829L821.894 205.13L826.47 208.974Z"/>
<path d="M832.459 265.317C829.207 264.014 826.262 261.981 823.624 259.218C819.643 255.047 817.734 250.511 817.898 245.608C818.062 240.704 820.246 236.246 824.45 232.233C828.655 228.219 833.218 226.253 838.139 226.334C843.061 226.416 847.464 228.491 851.348 232.559C853.888 235.221 855.842 238.201 857.207 241.498L852.931 243.587C851.464 240.387 849.808 237.82 847.963 235.887C845.18 232.971 842.034 231.56 838.525 231.652C835.017 231.745 831.652 233.328 828.431 236.403C825.481 239.219 823.844 242.468 823.518 246.148C823.192 249.829 824.38 253.085 827.083 255.917C829.219 258.154 831.852 260.047 834.982 261.596L832.459 265.317Z"/>
<path d="M856.531 297.579L847.452 285.668L883.129 258.474L877.332 250.869L881.107 247.992L890.228 259.958L854.551 287.152L860.305 294.702L856.531 297.579Z"/>
<path d="M896.881 327.471L883.952 305.914C880.395 308.048 878.078 310.838 877.002 314.285C875.926 317.731 876.287 320.952 878.083 323.947C879.795 326.801 882.073 329.438 884.919 331.858L881.638 334.933C878.728 332.906 876.164 330.044 873.946 326.346C871.149 321.683 870.393 317.026 871.676 312.375C872.959 307.725 876.143 303.875 881.228 300.825C886.213 297.835 890.956 296.733 895.458 297.518C899.959 298.302 903.428 300.724 905.863 304.785C908.033 308.403 908.47 312.253 907.175 316.337C905.88 320.42 902.941 323.836 898.359 326.585L896.881 327.471ZM897.636 320.049C900.088 318.578 901.696 316.576 902.458 314.042C903.22 311.508 903.034 309.296 901.901 307.407C900.442 304.975 898.43 303.442 895.864 302.808C893.297 302.175 890.663 302.545 887.962 303.919L897.636 320.049Z"/>
</g>
<g fill="#00d873" opacity="1" stroke="none" vectornator:layerName="Curve 3">
<path d="M82.3192 594.893L78.202 572.737L83.1448 571.818L84.7056 580.217L123.591 572.991L122.03 564.592L126.973 563.674L131.09 585.83L126.147 586.748L124.644 578.66L85.759 585.886L87.262 593.974L82.3192 594.893Z"/>
<path d="M94.3687 642.646L92.9333 637.353L116.142 631.059C121.752 629.538 124.275 627.736 123.71 625.655C123.422 624.592 122.137 623.684 119.857 622.93C117.576 622.177 116.334 621.827 116.131 621.883L90.6146 628.802L89.1884 623.543L112.397 617.249C118.007 615.728 120.527 613.915 119.956 611.812C119.674 610.771 118.393 609.874 116.112 609.12C113.831 608.367 112.589 608.018 112.386 608.073L86.8697 614.992L85.4343 609.699L120.79 600.111L122.17 605.201L116.843 606.645C118.991 607.132 120.81 607.907 122.301 608.972C123.791 610.037 124.721 611.248 125.089 612.605C125.475 614.03 125.262 615.46 124.449 616.895C123.636 618.33 122.349 619.516 120.588 620.455C122.736 620.941 124.556 621.723 126.05 622.799C127.544 623.875 128.472 625.081 128.834 626.415C129.993 630.69 126.75 633.865 119.104 635.938L94.3687 642.646Z"/>
<path d="M129.966 648.33C131.97 648.894 133.813 649.972 135.495 651.564C137.177 653.157 138.413 655.031 139.204 657.188C140.655 661.149 140.161 664.856 137.72 668.31C135.279 671.763 131.439 674.45 126.202 676.369C120.92 678.305 116.091 678.733 111.714 677.654C107.337 676.575 104.415 674.033 102.947 670.028C102.164 667.893 101.966 665.701 102.352 663.45C102.737 661.199 103.613 659.212 104.978 657.489L86.4272 664.288L84.5399 659.139L132.535 641.547L134.422 646.697L129.966 648.33ZM124.85 650.205L110.557 655.444C108.975 657.122 107.838 659.024 107.144 661.151C106.451 663.277 106.427 665.22 107.072 666.981C108.088 669.753 110.195 671.484 113.393 672.171C116.59 672.859 120.115 672.497 123.966 671.086C127.927 669.634 130.875 667.667 132.811 665.185C134.747 662.703 135.203 660.065 134.179 657.27C132.848 653.639 129.738 651.284 124.85 650.205Z"/>
<path d="M158.241 705.056L152.528 705.336C152.436 702.703 152.011 700.594 151.252 699.009C150.553 697.55 149.452 696.324 147.949 695.328C146.446 694.333 144.637 693.621 142.521 693.192C140.406 692.763 139.253 692.594 139.062 692.685L117.692 702.921L115.338 698.006L148.377 682.182L150.731 687.097L144.04 690.301C150.294 690.554 154.429 692.784 156.444 696.99C157.638 699.484 158.237 702.173 158.241 705.056Z"/>
<path d="M172.294 725.369C174.939 729.658 175.548 733.992 174.118 738.371C172.689 742.75 169.531 746.447 164.644 749.462C159.717 752.501 154.966 753.683 150.391 753.008C145.816 752.333 142.206 749.851 139.56 745.562C136.902 741.254 136.296 736.912 137.742 732.537C139.187 728.161 142.383 724.448 147.33 721.396C152.237 718.369 156.963 717.202 161.508 717.896C166.053 718.589 169.648 721.081 172.294 725.369ZM143.63 743.052C145.377 745.885 147.952 747.38 151.355 747.539C154.757 747.698 158.164 746.726 161.575 744.622C165.166 742.407 167.62 739.778 168.937 736.734C170.254 733.691 170.026 730.734 168.255 727.861C166.47 724.969 163.944 723.429 160.676 723.242C157.407 723.056 153.948 724.088 150.297 726.34C146.827 728.481 144.408 731.089 143.041 734.163C141.674 737.236 141.87 740.2 143.63 743.052Z"/>
<path d="M203.68 770.126L166.343 781.99L163.243 778.077L183.377 744.499L187.088 749.184L170.685 775.411L199.969 765.442L203.68 770.126Z"/>
<path d="M217.62 810.257L199.641 792.689C196.742 795.656 195.21 798.943 195.044 802.55C194.879 806.157 196.045 809.18 198.543 811.621C200.923 813.947 203.797 815.919 207.163 817.538L204.771 821.344C201.442 820.123 198.235 818.006 195.151 814.992C191.262 811.191 189.347 806.879 189.408 802.056C189.468 797.232 191.57 792.7 195.714 788.459C199.777 784.301 204.084 782.03 208.638 781.646C213.191 781.262 217.161 782.725 220.547 786.033C223.564 788.982 224.965 792.595 224.75 796.874C224.534 801.152 222.559 805.203 218.824 809.025L217.62 810.257ZM216.466 802.886C218.464 800.841 219.51 798.496 219.604 795.852C219.698 793.207 218.957 791.115 217.381 789.575C215.353 787.593 213.017 786.622 210.374 786.661C207.731 786.699 205.277 787.726 203.013 789.741L216.466 802.886Z"/>
<path d="M240.503 850.83L236.108 847.55L250.488 828.277C253.964 823.618 254.838 820.644 253.109 819.355C252.226 818.696 250.655 818.774 248.395 819.588C246.136 820.402 244.943 820.894 244.817 821.063L229.007 842.253L224.639 838.994L239.02 819.72C242.495 815.062 243.36 812.081 241.613 810.777C240.749 810.133 239.187 810.217 236.927 811.032C234.668 811.846 233.475 812.337 233.348 812.506L217.539 833.696L213.143 830.416L235.05 801.055L239.276 804.209L235.976 808.633C237.965 807.69 239.875 807.178 241.706 807.096C243.536 807.014 245.015 807.394 246.142 808.235C247.325 809.118 248.04 810.375 248.285 812.005C248.531 813.636 248.25 815.364 247.444 817.189C249.434 816.247 251.348 815.738 253.188 815.663C255.028 815.588 256.502 815.964 257.61 816.791C261.16 819.44 260.567 823.939 255.83 830.289L240.503 850.83Z"/>
<path d="M285.243 855.653L263.279 843.428C261.261 847.053 260.647 850.627 261.435 854.15C262.223 857.674 264.143 860.285 267.195 861.983C270.103 863.601 273.393 864.749 277.067 865.426L275.759 869.727C272.227 869.424 268.576 868.224 264.808 866.126C260.057 863.482 257.076 859.825 255.867 855.155C254.657 850.485 255.494 845.559 258.378 840.378C261.205 835.299 264.764 831.976 269.057 830.409C273.349 828.841 277.563 829.209 281.7 831.511C285.386 833.563 287.688 836.681 288.604 840.866C289.521 845.051 288.679 849.478 286.08 854.147L285.243 855.653ZM282.192 848.845C283.583 846.346 283.976 843.809 283.371 841.233C282.766 838.656 281.501 836.833 279.576 835.761C277.098 834.382 274.589 834.058 272.049 834.791C269.509 835.523 267.412 837.158 265.757 839.698L282.192 848.845Z"/>
<path d="M313.987 890.563L309.111 888.052L319.864 867.174C321.356 864.278 321.974 861.94 321.717 860.16C321.461 858.38 320.343 856.98 318.363 855.961C315.384 854.426 311.23 854.633 305.903 856.582L293.765 880.148L288.89 877.636L305.663 845.07L310.539 847.581L308.076 852.363C313.487 850.457 318.13 850.502 322.006 852.498C328.111 855.642 329.263 860.903 325.464 868.279L313.987 890.563Z"/>
<path d="M353.991 907.831C349.942 907.81 346.303 907.049 343.073 905.547C337.143 902.789 335.636 898.276 338.551 892.007L347.993 871.7L341.618 868.736L343.619 864.432L349.994 867.396L354.219 858.311L359.064 860.564L354.84 869.649L366.125 874.897L364.124 879.2L352.839 873.953L344.005 892.953C343.066 894.972 342.783 896.747 343.157 898.277C343.531 899.808 344.483 900.929 346.013 901.641C348.734 902.906 351.704 903.55 354.923 903.574L353.991 907.831Z"/>
<path d="M484.681 944.591C483.601 944.866 482.307 944.897 480.798 944.686C479.568 944.513 478.41 943.907 477.325 942.868C476.24 941.828 474.924 939.91 473.375 937.113C469.1 941.271 464.398 942.99 459.269 942.271C455.16 941.696 451.867 939.903 449.39 936.893C446.913 933.883 445.946 930.44 446.489 926.564C446.837 924.081 447.91 921.835 449.706 919.826C451.502 917.818 454.628 915.694 459.083 913.455C455.865 908.389 454.491 904.173 454.963 900.808C455.419 897.558 456.861 895.074 459.291 893.356C461.721 891.637 464.573 891.008 467.845 891.466C470.886 891.892 473.272 893.108 475.002 895.114C476.733 897.12 477.383 899.655 476.954 902.718C476.645 904.923 475.675 906.941 474.046 908.772C472.417 910.603 469.568 912.605 465.5 914.781L473.995 928.893C476.139 925.076 477.711 922.432 478.71 920.963C479.708 919.494 480.996 918.284 482.573 917.333C484.15 916.383 486.053 916.064 488.281 916.376L488.559 916.415L487.891 921.185L487.612 921.146C486.196 920.947 484.733 921.511 483.221 922.838C481.71 924.164 479.475 927.614 476.517 933.187C477.965 935.52 479.113 937.208 479.961 938.249C480.809 939.291 481.836 939.897 483.043 940.066C483.6 940.144 484.353 940.179 485.301 940.169L484.681 944.591ZM463.418 911.152C466.423 909.632 468.568 908.217 469.852 906.906C471.137 905.595 471.894 904.116 472.125 902.468C472.379 900.657 472.02 899.211 471.047 898.128C470.075 897.045 468.811 896.394 467.256 896.176C465.446 895.922 463.854 896.261 462.481 897.193C461.108 898.125 460.285 899.565 460.011 901.515C459.66 904.022 460.795 907.234 463.418 911.152ZM470.948 933.152L461.271 917.099C458.252 918.711 456.062 920.279 454.7 921.804C453.339 923.329 452.515 925.113 452.228 927.156C451.87 929.709 452.469 931.982 454.024 933.975C455.579 935.968 457.598 937.138 460.081 937.486C463.957 938.03 467.58 936.585 470.948 933.152Z"/>
<path d="M608.132 935.234L602.658 936.178L595.431 894.257L591.51 915.589L586.14 916.515L575.302 897.727L582.529 939.648L577.055 940.592L568.628 891.707L576.008 890.435L588.024 911.302L592.325 887.622L599.705 886.35L608.132 935.234Z"/>
<path d="M624.647 892.421C629.507 891.092 633.837 891.731 637.635 894.338C641.433 896.945 644.089 901.018 645.602 906.557C647.129 912.141 646.922 917.032 644.984 921.231C643.046 925.429 639.646 928.193 634.785 929.521C629.902 930.856 625.565 930.213 621.775 927.592C617.986 924.971 615.325 920.857 613.792 915.25C612.272 909.688 612.486 904.825 614.434 900.66C616.381 896.496 619.786 893.749 624.647 892.421ZM633.525 924.909C636.735 924.032 638.897 921.983 640.009 918.764C641.122 915.544 641.15 912.001 640.093 908.135C638.981 904.066 637.151 900.97 634.603 898.848C632.055 896.725 629.153 896.109 625.898 896.999C622.619 897.895 620.43 899.884 619.328 902.967C618.227 906.05 618.242 909.66 619.373 913.798C620.448 917.731 622.267 920.788 624.83 922.966C627.394 925.145 630.292 925.793 633.525 924.909Z"/>
<path d="M688.683 910.059L683.568 912.036L681.666 907.118C681.268 909.207 680.301 911.176 678.767 913.025C677.233 914.874 675.384 916.217 673.22 917.054C669.307 918.566 665.539 918.019 661.918 915.411C658.297 912.803 655.451 908.82 653.381 903.464C651.446 898.458 651.028 893.852 652.128 889.645C653.229 885.438 655.735 882.578 659.648 881.065C663.955 879.401 668.096 879.81 672.071 882.294L665.683 865.767L670.799 863.79L688.683 910.059ZM679.524 901.576L674.036 887.377C670.067 884.388 666.355 883.562 662.901 884.897C660.081 885.987 658.335 888.1 657.663 891.237C656.99 894.374 657.394 897.855 658.873 901.681C660.394 905.616 662.421 908.57 664.955 910.543C667.489 912.516 670.101 912.983 672.79 911.943C674.08 911.445 675.245 910.592 676.286 909.386C677.328 908.179 678.157 906.652 678.775 904.805C679.393 902.958 679.643 901.882 679.524 901.576Z"/>
<path d="M720.285 874.336L697.927 885.824C699.823 889.514 702.455 892.008 705.824 893.308C709.193 894.607 712.43 894.459 715.536 892.863C718.496 891.342 721.277 889.241 723.879 886.56L726.731 890.035C724.519 892.806 721.494 895.177 717.659 897.148C712.822 899.633 708.126 900.083 703.57 898.497C699.014 896.912 695.38 893.483 692.67 888.209C690.014 883.039 689.225 878.233 690.303 873.793C691.381 869.352 694.025 866.05 698.236 863.886C701.989 861.958 705.86 861.774 709.85 863.334C713.84 864.894 717.056 868.05 719.498 872.803L720.285 874.336ZM712.929 873.096C711.622 870.552 709.729 868.818 707.25 867.891C704.772 866.964 702.552 867.004 700.593 868.011C698.07 869.307 696.409 871.215 695.609 873.734C694.808 876.254 695.005 878.906 696.199 881.692L712.929 873.096Z"/>
<path d="M745.04 837.801L746.085 843.425C743.489 843.869 741.456 844.574 739.987 845.539C738.635 846.427 737.567 847.683 736.783 849.306C735.999 850.929 735.536 852.818 735.395 854.972C735.254 857.126 735.242 858.291 735.357 858.467L748.371 878.27L743.817 881.262L723.698 850.648L728.252 847.656L732.326 853.855C731.737 847.623 733.391 843.227 737.289 840.666C739.6 839.147 742.184 838.192 745.04 837.801Z"/>
<path d="M798.06 841.118L793.817 844.593L778.937 826.425C776.873 823.904 774.973 822.408 773.238 821.935C771.503 821.463 769.774 821.932 768.052 823.343C765.459 825.467 763.997 829.36 763.667 835.023L780.463 855.531L776.22 859.006L753.008 830.665L757.251 827.19L760.66 831.351C761.062 825.629 762.95 821.386 766.323 818.624C771.636 814.273 776.92 815.307 782.178 821.726L798.06 841.118Z"/>
<path d="M784.996 783.754C785.724 783.024 786.606 782.662 787.642 782.669C788.678 782.676 789.561 783.044 790.291 783.772C791.054 784.533 791.441 785.423 791.451 786.442C791.46 787.462 791.093 788.345 790.348 789.092C789.67 789.772 788.8 790.105 787.739 790.09C786.679 790.074 785.791 789.711 785.078 788.999C784.364 788.288 784.002 787.406 783.993 786.353C783.983 785.301 784.317 784.435 784.996 783.754ZM822.63 817.51L818.758 821.394L796.179 798.878L788.558 806.52L785.197 803.169L796.691 791.643L822.63 817.51Z"/>
<path d="M856.774 778.506L838.866 800.238L836.587 798.36L827.592 763.889L814.625 779.625L810.908 776.563L828.503 755.21L830.592 756.931L839.777 791.559L853.057 775.443L856.774 778.506Z"/>
<path d="M882.552 742.09L879.471 746.584C878.002 746.117 876.252 745.188 874.222 743.796C876.23 748.951 875.716 753.742 872.682 758.17C871.145 760.412 868.993 761.843 866.225 762.46C863.458 763.078 860.817 762.526 858.304 760.803C856.815 759.783 855.706 758.582 854.976 757.201C854.246 755.82 853.887 754.281 853.899 752.585C853.911 750.888 854.26 749.053 854.945 747.079C855.63 745.105 856.668 742.918 858.057 740.517L861.129 735.164L859.679 734.17C854.498 730.619 850.251 731.261 846.939 736.094C846.157 737.234 845.413 738.848 844.707 740.936C844.001 743.023 843.555 744.927 843.371 746.648L839.308 745.611C840.023 740.049 841.593 735.499 844.018 731.961C848.735 725.078 854.737 724.135 862.026 729.13L875.017 738.034C877.647 739.836 880.158 741.188 882.552 742.09ZM869.974 741.226L864.493 737.47C862.065 741.801 860.49 744.834 859.769 746.57C859.048 748.307 858.741 750.029 858.849 751.737C858.957 753.445 859.756 754.809 861.244 755.829C862.598 756.756 864.015 757.031 865.495 756.654C866.976 756.276 868.219 755.353 869.226 753.883C870.326 752.279 870.941 750.356 871.07 748.115C871.2 745.874 870.834 743.577 869.974 741.226Z"/>
<path d="M902.705 704.487C902.347 708.519 901.284 712.082 899.518 715.176C896.276 720.855 891.653 721.98 885.649 718.553L866.2 707.451L862.714 713.557L858.592 711.204L862.078 705.098L853.376 700.131L856.025 695.49L864.727 700.457L870.897 689.649L875.019 692.002L868.849 702.81L887.046 713.197C888.98 714.301 890.725 714.731 892.281 714.486C893.838 714.241 895.035 713.386 895.871 711.92C897.358 709.315 898.248 706.409 898.54 703.202L902.705 704.487Z"/>
<path d="M872.26 655.876C872.701 654.944 873.411 654.307 874.389 653.966C875.367 653.625 876.322 653.675 877.254 654.116C878.229 654.577 878.891 655.286 879.242 656.243C879.593 657.2 879.543 658.155 879.092 659.109C878.681 659.977 877.974 660.582 876.969 660.924C875.965 661.265 875.007 661.221 874.096 660.79C873.185 660.359 872.549 659.649 872.187 658.661C871.825 657.673 871.849 656.744 872.26 655.876ZM919.036 675.054L916.69 680.012L887.868 666.373L883.251 676.129L878.961 674.099L885.923 659.385L919.036 675.054Z"/>
<path d="M898.715 626.774C900.48 622.055 903.53 618.916 907.866 617.36C912.201 615.803 917.058 616.03 922.436 618.041C927.859 620.069 931.706 623.097 933.979 627.124C936.251 631.152 936.505 635.525 934.74 640.245C932.967 644.987 929.909 648.129 925.566 649.67C921.224 651.212 916.331 650.965 910.886 648.929C905.486 646.91 901.666 643.892 899.427 639.877C897.187 635.862 896.95 631.494 898.715 626.774ZM930.261 638.571C931.427 635.453 931.029 632.502 929.068 629.717C927.107 626.932 924.249 624.837 920.495 623.434C916.544 621.956 912.962 621.63 909.751 622.456C906.539 623.282 904.343 625.276 903.16 628.437C901.97 631.62 902.303 634.56 904.16 637.256C906.017 639.952 908.954 642.051 912.972 643.553C916.792 644.982 920.335 645.293 923.601 644.488C926.867 643.682 929.087 641.71 930.261 638.571Z"/>
<path d="M950.197 584.917L948.847 590.233L926.085 584.451C922.928 583.649 920.511 583.573 918.834 584.223C917.157 584.873 916.045 586.277 915.497 588.435C914.672 591.684 915.808 595.684 918.905 600.437L944.597 606.963L943.247 612.279L907.741 603.26L909.092 597.944L914.305 599.268C911.231 594.425 910.23 589.891 911.304 585.666C912.994 579.01 917.86 576.703 925.902 578.746L950.197 584.917Z"/>
</g>
<path d="M511 4.28125C230.05 4.28125 2.28125 232.05 2.28125 513C2.28125 793.95 230.05 1021.72 511 1021.72C791.95 1021.72 1019.72 793.95 1019.72 513C1019.72 458.003 1010.97 404.171 994.031 353C925.664 146.496 731.991 4.28125 511 4.28125ZM511 31.7188C720.086 31.7188 903.32 166.259 968 361.625C984.024 410.026 992.281 460.939 992.281 513C992.281 778.812 776.812 994.281 511 994.281C245.188 994.281 29.7188 778.812 29.7188 513C29.7188 247.188 245.188 31.7188 511 31.7188Z" fill="#00d873" fill-rule="nonzero" opacity="1" stroke="#585858" stroke-linecap="butt" stroke-linejoin="round" stroke-width="5" vectornator:layerName="Curve 4"/>
<g opacity="1" vectornator:layerName="Life Cycle">
<path d="M511.341 809.557C435.315 809.557 359.799 780.473 302.142 722.815C296.019 716.693 296.019 706.998 302.142 701.385C308.265 695.262 317.959 695.262 323.572 701.385C427.151 804.964 595.531 804.964 698.599 701.385C776.666 623.318 798.097 507.493 753.706 406.466C750.134 398.812 753.706 389.628 761.359 386.056C769.013 382.484 778.197 386.056 781.769 393.71C831.262 506.473 807.281 635.564 720.03 722.305C662.883 780.473 587.367 809.557 511.341 809.557Z" fill="#00d9c8" fill-rule="nonzero" opacity="1" stroke="#585858" stroke-linecap="butt" stroke-linejoin="round" stroke-width="5" vectornator:layerName="path"/>
<path d="M253.669 640.667C247.546 640.667 241.933 637.095 239.382 631.482C190.909 519.229 215.401 390.648 302.142 304.417C417.456 189.103 605.225 189.103 720.54 304.417C726.663 310.54 726.663 320.235 720.54 325.847C714.417 331.97 704.722 331.97 699.11 325.847C595.531 222.779 427.151 222.779 323.572 325.847C246.015 403.404 224.075 518.719 267.956 619.236C271.527 626.89 267.956 636.074 259.792 639.136C257.751 640.156 255.71 640.667 253.669 640.667Z" fill="#00d9c8" fill-rule="nonzero" opacity="1" stroke="#585858" stroke-linecap="butt" stroke-linejoin="round" stroke-width="5" vectornator:layerName="path"/>
<path d="M648.596 337.583C640.942 337.583 634.309 331.97 633.289 324.317C632.268 316.153 638.391 308.499 646.555 307.479L692.987 301.866L690.946 258.496C690.436 249.821 697.069 242.678 705.233 242.168C713.907 241.658 721.05 248.291 721.56 256.455L725.132 314.112C725.642 322.276 719.519 329.419 711.866 330.44L650.637 337.583C650.126 337.583 649.106 337.583 648.596 337.583Z" fill="#00d9c8" fill-rule="nonzero" opacity="1" stroke="#585858" stroke-linecap="butt" stroke-linejoin="round" stroke-width="5" vectornator:layerName="path"/>
<path d="M316.428 785.065C308.265 785.065 301.631 778.942 301.121 770.778L297.55 713.121C297.039 704.957 303.162 697.814 310.816 696.793L372.045 689.65C380.209 688.629 387.862 694.752 388.883 702.916C389.903 711.08 383.78 718.734 375.616 719.754L329.185 725.367L331.736 768.737C332.246 777.411 325.613 784.555 317.449 785.065C316.939 785.065 316.428 785.065 316.428 785.065Z" fill="#00d9c8" fill-rule="nonzero" opacity="1" stroke="#585858" stroke-linecap="butt" stroke-linejoin="round" stroke-width="5" vectornator:layerName="path"/>
</g>
<g fill="#00d9c8" opacity="1" stroke="#8b8b8b" stroke-linecap="butt" stroke-linejoin="round" stroke-width="1" vectornator:layerName="Text 1">
<path d="M392.945 485.156C389.745 482.556 386.545 480.631 383.345 479.381C380.145 478.131 377.045 477.506 374.045 477.506C370.245 477.506 367.145 478.406 364.745 480.206C362.345 482.006 361.145 484.356 361.145 487.256C361.145 489.256 361.745 490.906 362.945 492.206C364.145 493.506 365.72 494.631 367.67 495.581C369.62 496.531 371.82 497.356 374.27 498.056C376.72 498.756 379.145 499.506 381.545 500.306C391.145 503.506 398.17 507.781 402.62 513.131C407.07 518.481 409.295 525.456 409.295 534.056C409.295 539.856 408.32 545.106 406.37 549.806C404.42 554.506 401.57 558.531 397.82 561.881C394.07 565.231 389.47 567.831 384.02 569.681C378.57 571.531 372.395 572.456 365.495 572.456C351.195 572.456 337.945 568.206 325.745 559.706L338.345 536.006C342.745 539.906 347.095 542.806 351.395 544.706C355.695 546.606 359.945 547.556 364.145 547.556C368.945 547.556 372.52 546.456 374.87 544.256C377.22 542.056 378.395 539.556 378.395 536.756C378.395 535.056 378.095 533.581 377.495 532.331C376.895 531.081 375.895 529.931 374.495 528.881C373.095 527.831 371.27 526.856 369.02 525.956C366.77 525.056 364.045 524.056 360.845 522.956C357.045 521.756 353.32 520.431 349.67 518.981C346.02 517.531 342.77 515.606 339.92 513.206C337.07 510.806 334.77 507.781 333.02 504.131C331.27 500.481 330.395 495.856 330.395 490.256C330.395 484.656 331.32 479.581 333.17 475.031C335.02 470.481 337.62 466.581 340.97 463.331C344.32 460.081 348.42 457.556 353.27 455.756C358.12 453.956 363.545 453.056 369.545 453.056C375.145 453.056 380.995 453.831 387.095 455.381C393.195 456.931 399.045 459.206 404.645 462.206L392.945 485.156Z"/>
<path d="M457.145 456.206L457.145 544.406L492.395 544.406L492.395 569.306L427.745 569.306L427.745 456.206L457.145 456.206Z"/>
<path d="M536.945 456.206L536.945 569.306L507.545 569.306L507.545 456.206L536.945 456.206Z"/>
<path d="M555.545 569.306L574.745 456.206L603.845 456.206L626.495 516.506L648.995 456.206L678.095 456.206L697.295 569.306L668.045 569.306L658.295 504.206L631.595 569.306L619.895 569.306L594.545 504.206L584.795 569.306L555.545 569.306Z"/>
</g>
</g>
</svg>
